<svg xmlns="http://www.w3.org/2000/svg" xmlns:xlink="http://www.w3.org/1999/xlink" viewBox="0 0 512 512"><defs><style>.cls-1{fill:url(#未命名的渐变_6);}.cls-2{fill:url(#未命名的渐变_14);}.cls-3{fill:url(#未命名的渐变_14-2);}.cls-4{fill:url(#未命名的渐变_12);}.cls-5{fill:url(#未命名的渐变_12-2);}</style><radialGradient id="未命名的渐变_6" cx="256" cy="256" r="250.29" gradientUnits="userSpaceOnUse"><stop offset="0.33" stop-color="#0fafff"/><stop offset="1" stop-color="#017ad6"/></radialGradient><linearGradient id="未命名的渐变_14" x1="196.1" y1="423.84" x2="196.1" y2="159.14" gradientUnits="userSpaceOnUse"><stop offset="0" stop-color="#e3fbff"/><stop offset="1" stop-color="#fdffff"/></linearGradient><linearGradient id="未命名的渐变_14-2" x1="330.14" y1="360.54" x2="330.14" y2="235.81" xlink:href="#未命名的渐变_14"/><radialGradient id="未命名的渐变_12" cx="130.26" cy="134.07" r="160.23" gradientUnits="userSpaceOnUse"><stop offset="0" stop-color="#004fa0"/><stop offset="1" stop-color="#0579d3"/></radialGradient><radialGradient id="未命名的渐变_12-2" cx="-64.62" cy="134.07" r="160.23" gradientTransform="matrix(-1, 0, 0, 1, 316.58, 0)" xlink:href="#未命名的渐变_12"/></defs><g id="图层_2" data-name="图层 2"><path class="cls-1" d="M72,11.49,6.16,265.13c-26.89,103.64,37.65,210,142.56,231.47a193.61,193.61,0,0,0,38.79,3.91h137a193.61,193.61,0,0,0,38.79-3.91c104.91-21.47,169.45-127.83,142.56-231.47L440,11.49,334.67,83.31A140,140,0,0,1,256.4,108c-1.41,0-2.83,0-4.25,0a139.14,139.14,0,0,1-74.76-24.59Z"/><polygon class="cls-2" points="193.63 152.41 271.59 152.41 196.1 292.03 272.71 431.66 196.1 431.66 119.49 292.03 193.63 152.41"/><polygon class="cls-3" points="287.54 152.41 267.77 197.58 334.5 292.03 267.77 388.98 287.54 431.66 392.51 292.03 287.54 152.41"/><path class="cls-4" d="M8.37,256.64s31.46-148.7,243.78-148.7c0,0-46.34-5.08-180.18-96.45Z"/><path class="cls-5" d="M503.1,256.64s-31.46-148.7-243.79-148.7c0,0,46.34-5.08,180.18-96.45Z"/></g></svg>