<svg xmlns="http://www.w3.org/2000/svg" xmlns:xlink="http://www.w3.org/1999/xlink" viewBox="0 0 512 512"><defs><style>.cls-1{fill:url(#未命名的渐变_6);}.cls-2{fill:url(#未命名的渐变_14);}.cls-3{fill:url(#未命名的渐变_14-2);}.cls-4{fill:url(#未命名的渐变_12);}.cls-5{fill:url(#未命名的渐变_12-2);}</style><radialGradient id="未命名的渐变_6" cx="256" cy="256" r="194.49" gradientUnits="userSpaceOnUse"><stop offset="0.33" stop-color="#0fafff"/><stop offset="1" stop-color="#017ad6"/></radialGradient><linearGradient id="未命名的渐变_14" x1="209.46" y1="386.42" x2="209.46" y2="180.74" gradientUnits="userSpaceOnUse"><stop offset="0" stop-color="#e3fbff"/><stop offset="1" stop-color="#fdffff"/></linearGradient><linearGradient id="未命名的渐变_14-2" x1="313.61" y1="337.24" x2="313.61" y2="240.31" xlink:href="#未命名的渐变_14"/><radialGradient id="未命名的渐变_12" cx="158.29" cy="161.25" r="124.5" gradientUnits="userSpaceOnUse"><stop offset="0" stop-color="#004fa0"/><stop offset="1" stop-color="#0579d3"/></radialGradient><radialGradient id="未命名的渐变_12-2" cx="-36.71" r="124.5" gradientTransform="matrix(-1, 0, 0, 1, 316.58, 0)" xlink:href="#未命名的渐变_12"/></defs><g id="图层_1" data-name="图层 1"><path class="cls-1" d="M113,66,61.86,263.09C41,343.63,91.12,426.28,172.63,443a150.47,150.47,0,0,0,30.15,3H309.22a150.47,150.47,0,0,0,30.15-3C420.88,426.28,471,343.63,450.14,263.09L399,66l-81.87,55.81A108.68,108.68,0,0,1,256.31,141c-1.1,0-2.2,0-3.3,0a108.25,108.25,0,0,1-58.09-19.11Z"/><polygon class="cls-2" points="207.54 175.5 268.12 175.5 209.46 284 268.99 392.5 209.46 392.5 149.93 284 207.54 175.5"/><polygon class="cls-3" points="280.51 175.5 265.15 210.6 317 284 265.15 359.33 280.51 392.5 362.07 284 280.51 175.5"/></g><g id="图层_2" data-name="图层 2"><path class="cls-4" d="M63.57,256.5S88,141,253,141c0,0-36-3.95-140-74.95Z"/><path class="cls-5" d="M448,256.5S423.56,141,258.57,141c0,0,36-3.95,140-74.95Z"/></g></svg>