<svg id="图层_1" data-name="图层 1" xmlns="http://www.w3.org/2000/svg" viewBox="0 0 128 128"><defs><style>.cls-1{fill:#fff;}</style></defs><path class="cls-1" d="M54.82,97.59c-.08.88-1.22,1.33.36.58a7.47,7.47,0,0,0,1.45-.9A7.66,7.66,0,0,0,59,93.85a17.82,17.82,0,0,0,.8-5.58c.07-1.91.06-3.81.06-5.71V61.39c0-3.66-.07-7.89-3.35-10.24a7.65,7.65,0,0,0-1.7-.89c-.22-.1-.44-.19-.67-.27l-.38-.12c-.48-.19-.53-.17-.14,0,0-.1.5.67.46.61.2.28.08.44.09.17a1.29,1.29,0,0,1-.59.94s-.59.12-.57.14a8.42,8.42,0,0,0,2-.06l8-.23c1.57,0,3.13-.07,4.71-.07a9.51,9.51,0,0,0,1.77,0s.24,0,.25,0c-.07.18-1.63-.7-1.13-1.12-.08.07,0,.75,0,.85V84.42c0,2.86-.22,6,.6,8.82a8.22,8.22,0,0,0,1.86,3.37,8,8,0,0,0,1.51,1.2c.27.16,1.64.71,1.65.76-.12-.48-.47-.24-.5-.95v.11c0-.3.84-1.61,1.12-1.13a1.44,1.44,0,0,0-.36,0c-1.91-.13-3.87,0-5.78,0H54.26a1.74,1.74,0,0,0-.51,0h-.06c.25-.52,1,.84,1.05.85s.08.43.08.14c0-3.86-6-3.87-6,0a5,5,0,0,0,4.88,5c.51,0,1,0,1.52,0H71.61c1.83,0,4.13.3,5.77-.66a5,5,0,0,0,1.07-7.66c-.91-1-2.14-1-3.07-1.85.39.34-.13-.28-.22-.47s-.31-1.32-.31-1.27a58.52,58.52,0,0,1-.17-6.87V53.17c0-1,0-1.93,0-2.89a5,5,0,0,0-5.12-4.87c-1.3,0-2.6,0-3.9,0-4.17,0-8.38.12-12.54.36a5,5,0,0,0-4.9,4.7,5,5,0,0,0,2.57,4.65c.66.37,1.48.41,2.13.79.49.28.6.78.77,1.47.31,1.32,0-.24.06.38,0,.28,0,.57.07.85,0,.67.06,1.33.06,2,0,.49,0,1,0,1.48V84.3c0,1.07,0,2.14,0,3.2s-.08,2-.16,3c0,.17,0,.33-.05.49.09-.79.06-.3,0-.17a8.44,8.44,0,0,1-.5,1.54c-.13.2-.1.18-.46.41s-1.09.45-1.59.76a5.06,5.06,0,0,0-2.29,4.11,3,3,0,0,0,3,3A3.07,3.07,0,0,0,54.82,97.59Z"/><path class="cls-1" d="M68.27,34.67c0-1,0,1.42,0,.39,0,.65.11-.54,0-.13s-.16.66-.26,1c-.13.49,0-.16.1-.2s-.2.4-.25.49-.16.26-.24.39c-.36.63.37-.36,0,0l-.64.64c-.46.44.58-.35,0,0l-.31.19c-.16.1-.32.18-.48.26-.54.3.5-.11.12,0s-.73.21-1.09.29.79,0,.14,0h-.86c-.4,0-.81,0-1.21,0s-.75-.18,0,0c-.12,0-.25,0-.37-.06a4.77,4.77,0,0,1-.54-.15c-.11,0-.6-.29-.17,0l-.14-.08c-.16-.08-.32-.18-.47-.27a2.13,2.13,0,0,0-.31-.21c.37.29.43.33.18.13l-.26-.24L61,36.79l-.12-.14c-.2-.24-.16-.18.13.18,0-.13-.41-.64-.48-.78l-.08-.16c-.13-.29-.11-.22.08.21a2,2,0,0,0-.12-.35c-.05-.18-.1-.36-.14-.55-.15-.7.09,0,0,0a5.24,5.24,0,0,0,0-.87c0-.46.19-.22,0,.13a2.42,2.42,0,0,0,.11-.56c0-.12.06-.24.1-.36l.06-.18c.11-.3.08-.23-.1.21a5,5,0,0,0,.54-1c.31-.52-.38.35-.09.1.11-.1.21-.23.31-.34s.26-.25.39-.37c.37-.36-.12.14-.18.13.13,0,.72-.44.86-.52.46-.27.11.14-.12,0,.08,0,.51-.17.62-.2l.45-.1c.66-.16-.71,0,0,0h2.07l.29,0c.24,0,.13,0-.32-.05a5.11,5.11,0,0,0,1.09.27c.63.17-.6-.33,0,0,.16.08.32.16.48.26s.37.3.46.3c-.37-.29-.43-.33-.18-.13l.13.12a4.68,4.68,0,0,1,.39.38c.44.48,0,.14,0,0,0,.15.47.77.56.94.31.56-.19-.66,0,0,.06.22.13.42.18.63a2.3,2.3,0,0,0,.09.47c-.06-.49-.07-.56,0-.23,0,.13,0,.26,0,.39a3,3,0,0,0,6,0,9.33,9.33,0,0,0-7.42-9.07c-3.54-.6-7.44-.08-10,2.65a9.34,9.34,0,0,0-1,11.61A9.54,9.54,0,0,0,61,43.6a14,14,0,0,0,4.08.34,9.38,9.38,0,0,0,9.17-9.27,3,3,0,0,0-6,0Z"/></svg>