<svg id="图层_1" data-name="图层 1" xmlns="http://www.w3.org/2000/svg" viewBox="0 0 512 512"><path d="M249.63,253.4q33.6,0,67.19,0c10.05,0,16.93,3.45,20.71,13.89,19.93,55.08,36.16,111.5,59.7,165.29,6.44,14.71,4.57,26.17-11.41,34.93-93.35,51.15-192.33,45.56-279.91-12.35-11.88-7.85-15-17.48-9.77-30.42q31.62-78.9,63-157.88c4.38-11.09,12.55-13.73,23.28-13.61,22.39.27,44.79.08,67.18.08Z"/><path d="M6.23,264.8C4.54,171.07,37,102.26,105.85,52.16,136.64,29.74,172.16,16,210.05,10.29c19.61-3,23.07,2,15.78,20.23-30.07,75.23-61,150.13-91.07,225.33-18.37,46-38.35,91.33-55.33,137.87-2.73,7.46-2.21,19.17-12.16,20-9,.77-13-9.6-17.66-16.23C19.89,355.14,1.82,309.1,6.23,264.8Z"/><path d="M426.28,223.92c-19.58,0-39.15,0-58.72,0-11.37,0-20.12-3.35-24.3-15.54-19.88-58-40.37-115.86-60.21-173.91-7.84-22.93-4.7-26.35,19.33-21.3C406.09,35,475.21,94,501.26,199c5.74,23.14,4.25,24.8-20.46,25-18.17.15-36.35,0-54.52,0Z"/><path d="M432,253.34c18.14,0,36.28.33,54.42-.07,14.11-.32,21,5.79,19.86,20-4.71,58.45-27.83,109-66.9,152.2-9.53,10.54-17.12,5.59-21.33-6.46q-17.22-49.28-34.57-98.49c-5.57-15.75-10.76-31.69-17.31-47-7.31-17.15.15-20.89,15.6-20.35C398.52,253.77,415.28,253.32,432,253.34Z"/><path d="M248.43,224c-17.47,0-34.93.13-52.39,0-10.87-.11-17.81-2.66-12.35-16.34,20.42-51.12,40.2-102.49,60.4-153.7,1.74-4.4,4-9.93,9.58-9.91,6.31,0,6.51,6.56,8,10.86C279,103.51,296,152.31,313.42,200.94c6,16.66.65,23.67-16.79,23.19-16.05-.45-32.13-.1-48.2-.1Z"/></svg>