<svg id="图层_1" data-name="图层 1" xmlns="http://www.w3.org/2000/svg" xmlns:xlink="http://www.w3.org/1999/xlink" viewBox="0 0 1024 222"><defs><style>.cls-1{fill:none;}.cls-2{clip-path:url(#clip-path);}.cls-3{clip-path:url(#clip-path-2);}.cls-4{fill:url(#未命名的渐变_6);}.cls-5{clip-path:url(#clip-path-3);}.cls-6{fill:url(#未命名的渐变_3);}.cls-7{clip-path:url(#clip-path-4);}.cls-8{fill:url(#未命名的渐变_3-2);}.cls-9{clip-path:url(#clip-path-5);}.cls-10{fill:url(#未命名的渐变_5);}.cls-11{clip-path:url(#clip-path-6);}.cls-12{fill:url(#未命名的渐变_5-2);}.cls-13{fill:#0067c0;}.cls-14{fill:#478cbf;}.cls-15{fill:#fdfdfe;}.cls-16{fill:#434244;}</style><clipPath id="clip-path"><rect class="cls-1" x="183" y="-9" width="241" height="241"/></clipPath><clipPath id="clip-path-2"><path class="cls-1" d="M332.28,48.34a51.28,51.28,0,0,1-28.63,9c-.52,0-1,0-1.56,0a50.9,50.9,0,0,1-27.34-9L236.19,22.07l-24.07,92.77c-9.84,37.91,13.77,76.81,52.14,84.66a70.55,70.55,0,0,0,14.19,1.43h50.1a70.55,70.55,0,0,0,14.19-1.43c38.37-7.85,62-46.75,52.14-84.66L370.81,22.07Z"/></clipPath><radialGradient id="未命名的渐变_6" cx="0.24" cy="-147.64" r="0.47" gradientTransform="matrix(194.49, 0, 0, -194.49, 256, -28602.28)" gradientUnits="userSpaceOnUse"><stop offset="0" stop-color="#0fafff"/><stop offset="0.33" stop-color="#0fafff"/><stop offset="1" stop-color="#017ad6"/></radialGradient><clipPath id="clip-path-3"><polygon class="cls-1" points="280.69 73.61 253.57 124.68 281.59 175.75 309.61 175.75 281.59 124.68 309.2 73.61 280.69 73.61"/></clipPath><linearGradient id="未命名的渐变_3" x1="-2.16" y1="-145.35" x2="-1.69" y2="-145.35" gradientTransform="matrix(0, -205.68, -205.68, 0, -29614.57, -270.58)" gradientUnits="userSpaceOnUse"><stop offset="0" stop-color="#e3fbff"/><stop offset="1" stop-color="#fdffff"/></linearGradient><clipPath id="clip-path-4"><polygon class="cls-1" points="307.81 90.13 332.21 124.68 307.81 160.14 315.04 175.75 353.43 124.68 315.04 73.61 307.81 90.13"/></clipPath><linearGradient id="未命名的渐变_3-2" x1="-4.84" y1="-145.18" x2="-4.37" y2="-145.18" gradientTransform="matrix(0, -96.93, -96.93, 0, -13740.66, -319.76)" xlink:href="#未命名的渐变_3"/><clipPath id="clip-path-5"><path class="cls-1" d="M212.92,111.74l.36-1.36c-.25.87-.36,1.36-.36,1.36m.36-1.36c2.4-8.41,18.47-53,88.81-53,0,0-16.95-1.85-65.9-35.27Z"/></clipPath><radialGradient id="未命名的渐变_5" cx="0.8" cy="-149.52" r="0.47" gradientTransform="matrix(124.5, 0, 0, -124.5, 158.29, -18548.93)" gradientUnits="userSpaceOnUse"><stop offset="0" stop-color="#004fa0"/><stop offset="1" stop-color="#0579d3"/></radialGradient><clipPath id="clip-path-6"><path class="cls-1" d="M393.88,111.74s-.1-.49-.35-1.36Zm-89.17-54.4c70.34,0,86.41,44.63,88.82,53L370.62,22.07c-49,33.42-65.91,35.27-65.91,35.27"/></clipPath><radialGradient id="未命名的渐变_5-2" cx="0.03" cy="-149.52" r="0.47" gradientTransform="translate(353.29 -18548.93) rotate(180) scale(124.5)" xlink:href="#未命名的渐变_5"/></defs><g class="cls-2"><g class="cls-3"><rect class="cls-4" x="202.28" y="22.07" width="202.43" height="178.87"/></g><g class="cls-5"><rect class="cls-6" x="253.57" y="73.61" width="56.04" height="102.14"/></g><g class="cls-7"><rect class="cls-8" x="307.81" y="73.61" width="45.62" height="102.14"/></g><g class="cls-9"><rect class="cls-10" x="212.92" y="22.07" width="89.17" height="89.67"/></g><g class="cls-11"><rect class="cls-12" x="304.71" y="22.07" width="89.17" height="89.67"/></g></g><rect class="cls-13" x="424" y="107.88" width="479" height="9"/><path d="M432.69,112.61V67.31h16.08q7.41,0,11.41,2.81a9,9,0,0,1,4,7.78,9.38,9.38,0,0,1-2.49,6.46,12.82,12.82,0,0,1-6.26,3.83v.12a12.6,12.6,0,0,1,7.65,3.51A10,10,0,0,1,466,99.16a12.07,12.07,0,0,1-4.39,9.81q-4.38,3.65-12,3.64Zm9.65-38.11V85.71h4.59a7.94,7.94,0,0,0,5.21-1.58,5.46,5.46,0,0,0,1.9-4.42q0-5.2-7.61-5.21Zm0,18.49v12.43h5.73a8.77,8.77,0,0,0,5.72-1.7A5.77,5.77,0,0,0,455.85,99a5.27,5.27,0,0,0-2.05-4.44A9.35,9.35,0,0,0,448,93Z"/><path d="M501.42,99.1H480.13q.5,7.52,9.06,7.52a17.13,17.13,0,0,0,9.45-2.63v6.93q-4.42,2.49-11.58,2.48-7.72,0-12-4.35t-4.28-12.14q0-7.75,4.56-12.59a15.07,15.07,0,0,1,11.46-4.84q6.88,0,10.75,4.17t3.88,11.44Zm-8.81-5.91q0-7.25-5.87-7.25a5.73,5.73,0,0,0-4.3,2,9.38,9.38,0,0,0-2.34,5.26Z"/><path d="M526.6,112.23a13.87,13.87,0,0,1-6.46,1.17q-10.31,0-10.3-10.82V87.32h-5.32v-7h5.32V73.16l9.39-2.69v9.8h7.37v7h-7.37v13.62c0,3.46,1.36,5.18,4.09,5.18a6.8,6.8,0,0,0,3.28-.93Z"/><path d="M551.4,112.23a13.87,13.87,0,0,1-6.46,1.17q-10.31,0-10.3-10.82V87.32h-5.32v-7h5.32V73.16L544,70.47v9.8h7.37v7H544v13.62c0,3.46,1.37,5.18,4.09,5.18a6.8,6.8,0,0,0,3.28-.93Z"/><path d="M585.62,99.1H564.33q.49,7.52,9.06,7.52a17.13,17.13,0,0,0,9.45-2.63v6.93q-4.41,2.49-11.58,2.48-7.72,0-12-4.35T555,96.91q0-7.75,4.56-12.59A15.08,15.08,0,0,1,571,79.48q6.87,0,10.74,4.17t3.88,11.44Zm-8.8-5.91q0-7.25-5.88-7.25a5.74,5.74,0,0,0-4.3,2,9.38,9.38,0,0,0-2.34,5.26Z"/><path d="M612.38,88.84a8.16,8.16,0,0,0-4.18-1,6.07,6.07,0,0,0-5.1,2.46,10.83,10.83,0,0,0-1.89,6.75v15.56h-9.45V80.27h9.45v6.08h.12q2.34-6.64,8.51-6.64a6.68,6.68,0,0,1,2.54.38Z"/><path d="M650.4,111q-4.93,2.42-12.9,2.42-10.23,0-16.24-6.12t-6-16.34q0-10.72,6.71-17.56t17.33-6.83a30.86,30.86,0,0,1,11.11,1.73v9.33A20.14,20.14,0,0,0,640,74.91a13.87,13.87,0,0,0-10.62,4.25q-4,4.23-4,11.08,0,6.67,3.77,10.73T639.38,105a21.33,21.33,0,0,0,11-2.93Z"/><path d="M655.55,96.59q0-8,4.78-12.55t12.86-4.56q7.8,0,12.4,4.49T690.18,96q0,7.95-4.71,12.67t-12.75,4.7q-7.9,0-12.53-4.52T655.55,96.59Zm9.56-.12q0,9.68,7.9,9.68,7.57,0,7.58-9.94,0-9.48-7.64-9.48a7,7,0,0,0-5.77,2.54Q665.11,91.82,665.11,96.47Z"/><path d="M728.05,112.61h-9.41v-4.56h-.15a11.23,11.23,0,0,1-10.12,5.35,12.14,12.14,0,0,1-9.81-4.35q-3.64-4.36-3.64-11.88,0-8,4.08-12.82a13.23,13.23,0,0,1,10.66-4.87q6.32,0,8.83,4.56h.15V64.74h9.41Zm-9.27-18.3a7.69,7.69,0,0,0-2-5.43,6.43,6.43,0,0,0-4.93-2.15,6.32,6.32,0,0,0-5.42,2.73,12.44,12.44,0,0,0-2,7.42,10.92,10.92,0,0,0,1.9,6.86,6.69,6.69,0,0,0,10.39-.13,10.35,10.35,0,0,0,2-6.61Z"/><path d="M765.38,99.1h-21.3q.49,7.52,9.07,7.52A17.13,17.13,0,0,0,762.6,104v6.93q-4.43,2.49-11.59,2.48c-5.14,0-9.15-1.45-12-4.35s-4.29-7-4.29-12.14,1.52-9.37,4.57-12.59a15.07,15.07,0,0,1,11.46-4.84q6.87,0,10.75,4.17t3.88,11.44Zm-8.81-5.91q0-7.25-5.88-7.25a5.74,5.74,0,0,0-4.3,2,9.51,9.51,0,0,0-2.34,5.26Z"/><path d="M822.26,112.61h-9.42V94.16q0-7.43-5.41-7.43A5,5,0,0,0,803.25,89a9,9,0,0,0-1.67,5.5v18.13h-9.41V93.92q0-7.19-5.36-7.19a5,5,0,0,0-4.25,2.15,9.27,9.27,0,0,0-1.6,5.69v18h-9.44V80.27H781v5.06h.12a11.88,11.88,0,0,1,4.5-4.32,12.2,12.2,0,0,1,5.91-1.53c4.55,0,7.65,2,9.33,6.11a12,12,0,0,1,10.88-6.11q10.56,0,10.56,13Z"/><path d="M831.12,82.23a20.53,20.53,0,0,1,5.87-2,31.33,31.33,0,0,1,6.27-.76q13.57,0,13.57,13.6v19.53h-9v-4.7h-.12a10.63,10.63,0,0,1-9.68,5.49,10.26,10.26,0,0,1-7.35-2.61,9.36,9.36,0,0,1-2.77-7.12q0-9.32,11.09-10.83l8.89-1.2Q847.91,86,842,86a19,19,0,0,0-10.91,3.51ZM841.8,98c-3.42.45-5.12,2-5.12,4.62a3.74,3.74,0,0,0,1.24,2.93,4.85,4.85,0,0,0,3.35,1.11,6.17,6.17,0,0,0,4.77-2.05,7.24,7.24,0,0,0,1.87-5.09V97.17Z"/><path d="M863,96.59q0-8,4.78-12.55t12.86-4.56q7.8,0,12.4,4.49T897.63,96q0,7.95-4.71,12.67t-12.75,4.7q-7.89,0-12.53-4.52T863,96.59Zm9.57-.12q0,9.68,7.89,9.68,7.57,0,7.58-9.94,0-9.48-7.64-9.48a7,7,0,0,0-5.77,2.54C873.25,91,872.57,93.37,872.57,96.47Z"/><path d="M463,143.44c-.1.79-.16,1.59-.32,2.37a19.24,19.24,0,0,1-12.87,15c-.86.32-1.43-.1-1.43-1,0-1.65,0-3.3,0-5A5,5,0,0,0,447.1,151c.74-.14,1.45-.25,2.15-.41A8.4,8.4,0,0,0,453.9,148a7.43,7.43,0,0,0,1.51-2.79,12.14,12.14,0,0,0,.44-5.12,7,7,0,0,0-1.7-3.75.49.49,0,0,1-.11-.54,7.26,7.26,0,0,0-.21-4.67c-.09-.25-.27-.23-.45-.24a5.87,5.87,0,0,0-2.66.71c-.72.35-1.39.78-2.09,1.16a.71.71,0,0,1-.49.09,18.73,18.73,0,0,0-9.26,0,.75.75,0,0,1-.52-.12,12.33,12.33,0,0,0-3.59-1.7,6.55,6.55,0,0,0-1.25-.13.45.45,0,0,0-.33.26,7.09,7.09,0,0,0-.21,4.7.49.49,0,0,1-.07.39,8.13,8.13,0,0,0-1.8,6.41,10.8,10.8,0,0,0,.94,3.7,7.55,7.55,0,0,0,5.07,4c.75.22,1.53.32,2.3.48l.48.09a4.47,4.47,0,0,0-1.17,2.38.45.45,0,0,1-.25.29c-2.12.84-4.13.47-5.41-1.65a3.92,3.92,0,0,0-2.57-2,2.64,2.64,0,0,0-1,0c-.4.07-.47.33-.2.63a2.15,2.15,0,0,0,.45.4,5.51,5.51,0,0,1,2.25,2.85,4.32,4.32,0,0,0,3.28,2.76,7.35,7.35,0,0,0,2.88,0l.43-.06c0,1.17,0,2.32,0,3.45,0,.71-.65,1-1.42.76a18.69,18.69,0,0,1-5.92-3.28,19.16,19.16,0,0,1-6.83-11.16c-.19-.87-.25-1.76-.37-2.64,0-.14-.05-.29-.07-.44v-1.9c.09-.7.14-1.41.26-2.11a19.51,19.51,0,0,1,15.92-16.1c.72-.13,1.45-.2,2.18-.3h2.28a2.58,2.58,0,0,0,.37.06,18.79,18.79,0,0,1,8.83,2.92,19.23,19.23,0,0,1,8.87,13.24c.13.7.19,1.42.29,2.14Z"/><path class="cls-14" d="M504.66,126c-.1,1.08-.17,2.13-.29,3.17a.49.49,0,0,0,.27.57,19.78,19.78,0,0,1,3.16,2.3c.23.21.39.16.61,0,.88-.57,1.79-1.1,2.72-1.6a.52.52,0,0,1,.75.13,29.55,29.55,0,0,1,3,3.95.53.53,0,0,1,0,.67c-.59.92-1.2,1.82-1.88,2.68a1.47,1.47,0,0,0-.31,1c0,3.11,0,6.21,0,9.31,0,.41-.1.56-.54.6-1.86.15-3.72.36-5.58.53-.75.07-1,.27-1,1s-.1,1.36-.13,2c0,.3-.08.45-.42.47-1.56.1-3.11.21-4.67.35-.44.05-.57-.13-.62-.52-.07-.62-.17-1.23-.25-1.85a.8.8,0,0,0-.89-.8c-2.12,0-4.25,0-6.38,0a.82.82,0,0,0-.91.84c-.08.61-.2,1.23-.25,1.85,0,.4-.22.51-.6.48-1.58-.13-3.15-.25-4.73-.35-.33,0-.36-.22-.38-.46-.05-.68-.1-1.36-.13-2s-.22-1-1-1c-1.85-.17-3.69-.38-5.53-.53-.45,0-.52-.21-.52-.61,0-3.09,0-6.17,0-9.25a1.49,1.49,0,0,0-.34-1c-.67-.86-1.29-1.76-1.88-2.68a.53.53,0,0,1,0-.67,29.62,29.62,0,0,1,3-3.95.49.49,0,0,1,.74-.13c.88.53,1.79,1,2.67,1.57a.53.53,0,0,0,.75-.06,17.53,17.53,0,0,1,3-2.17.63.63,0,0,0,.36-.74c-.13-1.14-.18-2.29-.27-3.44a.49.49,0,0,1,.35-.57,25,25,0,0,1,4.47-1.52.47.47,0,0,1,.64.27c.54,1,1.07,2,1.53,3a.49.49,0,0,0,.62.35,10.48,10.48,0,0,1,3.26,0,.49.49,0,0,0,.62-.34c.45-1,1-2,1.53-3a.48.48,0,0,1,.64-.29,27.42,27.42,0,0,1,4.47,1.53C504.85,125.31,504.55,125.73,504.66,126Zm3.64,16.59a3.84,3.84,0,0,0-3.8-3.92,3.85,3.85,0,1,0-.08,7.7A3.84,3.84,0,0,0,508.3,142.62Zm-22,3.78a3.85,3.85,0,1,0,.06-7.7,3.85,3.85,0,0,0-.06,7.7Zm10.35-2.57c0-.54,0-1.09,0-1.63a1.21,1.21,0,0,0-1.27-1.24,1.18,1.18,0,0,0-1.22,1.22c0,1.1,0,2.21,0,3.32a1.22,1.22,0,0,0,1.26,1.25,1.25,1.25,0,0,0,1.23-1.29C496.68,144.92,496.67,144.38,496.67,143.83Z"/><path class="cls-14" d="M495.35,160.57a31,31,0,0,1-11.29-1.87,9.5,9.5,0,0,1-5.24-4.25,8.37,8.37,0,0,1-.71-4c0-.37.23-.34.47-.32,1.35.13,2.71.25,4.07.41s1.21.17,1.3,1.39c0,.45.08.89.1,1.34s.24.83.81.87c2.18.13,4.35.29,6.53.44a.72.72,0,0,0,.87-.71c.1-.69.24-1.38.31-2.08,0-.35.19-.4.49-.4h4.74c.29,0,.41.08.44.38.09.69.21,1.38.31,2.08.08.5.32.77.86.74l6.59-.46c.53,0,.74-.33.76-.84,0-.72.11-1.44.14-2.16,0-.38.18-.51.57-.54,1.49-.12,3-.28,4.48-.44.76-.08.73-.09.76.65.14,3.53-1.72,5.78-4.68,7.29a23,23,0,0,1-8.37,2.22A36.51,36.51,0,0,1,495.35,160.57Z"/><path class="cls-15" d="M508.3,142.62a3.85,3.85,0,1,1-7.69-.2,3.9,3.9,0,0,1,3.89-3.72A3.84,3.84,0,0,1,508.3,142.62Zm-1.65.2a2.59,2.59,0,0,0-2.53-2.6,2.56,2.56,0,1,0,0,5.12A2.6,2.6,0,0,0,506.65,142.82Z"/><path class="cls-15" d="M486.32,146.4a3.85,3.85,0,0,1,.06-7.7,3.85,3.85,0,1,1-.06,7.7Zm-2.16-3.69a2.6,2.6,0,0,0,2.57,2.63,2.56,2.56,0,0,0,0-5.12A2.61,2.61,0,0,0,484.16,142.71Z"/><path class="cls-15" d="M496.67,143.83c0,.55,0,1.09,0,1.63a1.25,1.25,0,0,1-1.23,1.29,1.22,1.22,0,0,1-1.26-1.25c0-1.11,0-2.22,0-3.32a1.18,1.18,0,0,1,1.22-1.22,1.21,1.21,0,0,1,1.27,1.24C496.68,142.74,496.67,143.29,496.67,143.83Z"/><path class="cls-16" d="M506.65,142.82a2.6,2.6,0,0,1-2.55,2.52,2.56,2.56,0,1,1,2.55-2.52Z"/><path class="cls-16" d="M484.16,142.71a2.57,2.57,0,0,1,5.13.1,2.64,2.64,0,0,1-2.56,2.53A2.6,2.6,0,0,1,484.16,142.71Z"/></svg>