<svg id="图层_1" data-name="图层 1" xmlns="http://www.w3.org/2000/svg" viewBox="0 0 128 128"><defs><style>.cls-1{fill:#fff;}</style></defs><path class="cls-1" d="M46,96.68a5.72,5.72,0,0,1-2.25-.45A6.15,6.15,0,0,1,41.92,95a5.93,5.93,0,0,1-1.26-1.82A5.4,5.4,0,0,1,40.19,91V36.64a5.54,5.54,0,0,1,.51-2.34,6.52,6.52,0,0,1,1.35-2A6.65,6.65,0,0,1,44,31a5.69,5.69,0,0,1,2.34-.5H63a18.37,18.37,0,0,1,7.4,1.5A19.33,19.33,0,0,1,80.57,42.11a18.82,18.82,0,0,1,.52,13.41,21.3,21.3,0,0,1-2.81,5.41,19.57,19.57,0,0,1,5.68,7,20,20,0,0,1,2,8.78,23.5,23.5,0,0,1-.71,5.74,16.2,16.2,0,0,1-2.38,5.26,19.57,19.57,0,0,1-3.29,3.74,21,21,0,0,1-4.07,2.83,20.25,20.25,0,0,1-9.56,2.4h-5l-9.89,0Zm16.56-40a7.05,7.05,0,0,0,2.79-.55,7.22,7.22,0,0,0,2.26-1.53,7.19,7.19,0,0,0,1.53-7.85,7.1,7.1,0,0,0-1.53-2.27,7.19,7.19,0,0,0-2.26-1.52,7.06,7.06,0,0,0-2.79-.56H52.1V56.65Zm2.82,28.57a8,8,0,0,0,3.24-.65,7.87,7.87,0,0,0,2.57-1.77,8.32,8.32,0,0,0,1.69-2.62,8.51,8.51,0,0,0,.61-3.25,7.93,7.93,0,0,0-.65-3.15,9.4,9.4,0,0,0-1.75-2.68,8.3,8.3,0,0,0-2.56-1.86,7.46,7.46,0,0,0-3.15-.68H52.1V85.22Z"/></svg>