<svg id="图层_1" data-name="图层 1" xmlns="http://www.w3.org/2000/svg" viewBox="0 0 128 128"><defs><style>.cls-1{fill:#fff;}</style></defs><path class="cls-1" d="M83.88,34.12l9,9L95,38H53.52c-3,0-6.49-.4-9.45.35-3.37.84-5.56,3.4-7.91,5.74l-5.28,5.29c-2.74,2.73,1.51,7,4.24,4.24l4.34-4.34a38.7,38.7,0,0,1,4.43-4.35,6.39,6.39,0,0,1,4-.93H95a3,3,0,0,0,2.12-5.12l-9-9c-2.73-2.74-7,1.51-4.24,4.24Z"/><path class="cls-1" d="M88.12,53.12,96,44.36l1.12-1.24a3,3,0,0,0-4.24-4.24L85,47.64l-1.12,1.24a3,3,0,0,0,4.24,4.24Z"/><path class="cls-1" d="M44.12,93.88l-9-9L33,90H74.48c3,0,6.49.4,9.45-.35,3.37-.84,5.56-3.4,7.91-5.74l5.28-5.29c2.74-2.73-1.51-7-4.24-4.24l-4.34,4.34a38.7,38.7,0,0,1-4.43,4.35,6.39,6.39,0,0,1-4,.93H33a3,3,0,0,0-2.12,5.12l9,9c2.73,2.74,7-1.51,4.24-4.24Z"/><path class="cls-1" d="M39.88,74.88,32,83.64l-1.12,1.24a3,3,0,0,0,4.24,4.24L43,80.36l1.12-1.24a3,3,0,0,0-4.24-4.24Z"/></svg>