<svg id="图层_1" data-name="图层 1" xmlns="http://www.w3.org/2000/svg" viewBox="0 0 128 128"><defs><style>.cls-1{fill:#fff;}</style></defs><path class="cls-1" d="M102.09,63.8A38,38,0,0,1,96.9,83,38.4,38.4,0,0,1,83.25,96.7a38.85,38.85,0,0,1-9.1,3.83,38.83,38.83,0,0,1-20.3,0,39.18,39.18,0,0,1-9.12-3.83A38,38,0,0,1,27.27,74,37.45,37.45,0,0,1,25.91,63.8a2.38,2.38,0,0,1,4.76,0,34.42,34.42,0,0,0,1.1,8.68,30.77,30.77,0,0,0,3.37,8,33.34,33.34,0,0,0,5.39,6.94,34.1,34.1,0,0,0,6.84,5.23A33,33,0,0,0,64,97.12a32.57,32.57,0,0,0,8.87-1.19,33.16,33.16,0,0,0,14.69-8.57,33.3,33.3,0,0,0,8.58-14.69,33.54,33.54,0,0,0,0-17.71,33.67,33.67,0,0,0-3.37-8,33.17,33.17,0,0,0-5.23-6.75A33.89,33.89,0,0,0,80.79,35,33.22,33.22,0,0,0,56,31.45a33.67,33.67,0,0,0-14,7.31,32.68,32.68,0,0,0-5.38,6H52.1a2.38,2.38,0,0,1,0,4.76H33.05a2.08,2.08,0,0,1-2-1.13,3.39,3.39,0,0,1-.33-1.12A10.19,10.19,0,0,1,30.64,46v-4.5l0-8.93v-4.5a2.31,2.31,0,0,1,.71-1.68,2.38,2.38,0,0,1,4.05,1.68V38.61a39.23,39.23,0,0,1,6-5.46,36.87,36.87,0,0,1,6.92-4.06,39,39,0,0,1,7.59-2.51,38.27,38.27,0,0,1,18.19.48,38.71,38.71,0,0,1,9.11,3.84,38,38,0,0,1,17.5,22.78A37.34,37.34,0,0,1,102.09,63.8Z"/></svg>