<svg id="图层_1" data-name="图层 1" xmlns="http://www.w3.org/2000/svg" viewBox="0 0 128 128"><defs><style>.cls-1{fill:#fff;}</style></defs><path class="cls-1" d="M40.19,90V73.32a7,7,0,0,0-.55-2.76,7.36,7.36,0,0,0-3.83-3.83,7,7,0,0,0-2.76-.55,2.38,2.38,0,0,1,0-4.76,7,7,0,0,0,2.76-.56,7.15,7.15,0,0,0,2.28-1.55A7.31,7.31,0,0,0,39.64,57a7,7,0,0,0,.55-2.76V37.35a10.83,10.83,0,0,1,1-4.46,12.14,12.14,0,0,1,6.23-6.23,10.72,10.72,0,0,1,4.47-.95,2.91,2.91,0,0,1,1.86.61,2.12,2.12,0,0,1,.78,1.77,2.43,2.43,0,0,1-2.38,2.38,6.81,6.81,0,0,0-2.76.56,7.12,7.12,0,0,0-2.28,1.54,7.36,7.36,0,0,0-1.55,2.29A6.93,6.93,0,0,0,45,37.61V54.27a11.84,11.84,0,0,1-1.25,5.34,11.4,11.4,0,0,1-3.52,4.19A11.37,11.37,0,0,1,43.71,68,11.84,11.84,0,0,1,45,73.32V90a6.89,6.89,0,0,0,.55,2.75A7.36,7.36,0,0,0,47.06,95a7.12,7.12,0,0,0,2.28,1.54,6.81,6.81,0,0,0,2.76.56,2.43,2.43,0,0,1,2.38,2.38,2.12,2.12,0,0,1-.78,1.77,2.91,2.91,0,0,1-1.86.61,10.84,10.84,0,0,1-4.54-1,12.16,12.16,0,0,1-3.7-2.61,12,12,0,0,1-2.49-3.79A11.51,11.51,0,0,1,40.19,90ZM73.52,99.5a2.43,2.43,0,0,1,2.38-2.38,6.81,6.81,0,0,0,2.76-.56A7.12,7.12,0,0,0,80.94,95a7.36,7.36,0,0,0,1.55-2.29A6.89,6.89,0,0,0,83,90V73.32A11.84,11.84,0,0,1,84.29,68,11.44,11.44,0,0,1,87.8,63.8a11.47,11.47,0,0,1-3.51-4.19A11.84,11.84,0,0,1,83,54.27V37.61a6.93,6.93,0,0,0-.55-2.75,7.36,7.36,0,0,0-1.55-2.29A7.12,7.12,0,0,0,78.66,31a6.81,6.81,0,0,0-2.76-.56,2.43,2.43,0,0,1-2.38-2.38,2.12,2.12,0,0,1,.78-1.77,2.91,2.91,0,0,1,1.86-.61,10.88,10.88,0,0,1,4.54,1,12.16,12.16,0,0,1,3.7,2.61,12,12,0,0,1,2.49,3.79,11.5,11.5,0,0,1,.91,4.54V54.27A7,7,0,0,0,88.36,57a7.31,7.31,0,0,0,1.55,2.28,7.15,7.15,0,0,0,2.28,1.55,7,7,0,0,0,2.76.56,2.38,2.38,0,0,1,0,4.76,7,7,0,0,0-2.76.55,7.36,7.36,0,0,0-3.83,3.83,7,7,0,0,0-.56,2.76V90.24a10.9,10.9,0,0,1-.94,4.47,12.14,12.14,0,0,1-6.23,6.23,10.9,10.9,0,0,1-4.47.94,2.91,2.91,0,0,1-1.86-.61A2.12,2.12,0,0,1,73.52,99.5Z"/></svg>