<svg id="图层_1" data-name="图层 1" xmlns="http://www.w3.org/2000/svg" viewBox="0 0 128 128"><defs><style>.cls-1{fill:#1b1b1b;}</style></defs><path class="cls-1" d="M63.5,67.54A18.34,18.34,0,0,1,60,78.31a23.08,23.08,0,0,1-3.45,3.6,19.43,19.43,0,0,1-4.91,2.74A18.26,18.26,0,1,1,63.5,67.54c0,3.86,6,3.87,6,0A24.24,24.24,0,0,0,26.58,52.09a24.24,24.24,0,0,0,23.58,39.2c11.2-2.21,19.25-12.47,19.34-23.75C69.53,63.68,63.53,63.68,63.5,67.54Z"/><path class="cls-1" d="M56.51,88.88l13.58-9L93,64.79l6.79-4.48c.64-.42,1.31-.83,1.93-1.29A13.1,13.1,0,0,0,107,49.3a12.68,12.68,0,0,0-4-9.92,13.05,13.05,0,0,0-10.16-3.09,13.56,13.56,0,0,0-5.7,1.56l-3.69,2.21L63,52.41l-.47.29c-3.31,2-.3,7.18,3,5.18L83,47.35c2.55-1.53,5.13-3,7.64-4.6a2.25,2.25,0,0,1,.21-.12,2.72,2.72,0,0,0-.32.17A9,9,0,0,0,92,42.44a12.17,12.17,0,0,1,4-.1,6,6,0,0,1,4.84,4.79,6.88,6.88,0,0,1-.16,3.64,7.14,7.14,0,0,1-2,3.1,20.1,20.1,0,0,1-1.73,1.19l-6.19,4.08L68.84,73.57c-5,3.32-10.12,6.57-15.1,10l-.25.16a3.07,3.07,0,0,0-1.08,4.11,3,3,0,0,0,4.1,1.07Z"/><path class="cls-1" d="M33.34,63.87,45.21,78.12l1.67,2a3,3,0,0,0,5-1.32l2.62-14.86.38-2.14C55.21,60,54.1,57.9,52,58l-14.47.66-2.07.09a3,3,0,0,0,0,6l14.47-.66L52,64l-2.89-3.8L46.49,75.06l-.38,2.14,5-1.32L39.25,61.63l-1.67-2a3,3,0,0,0-4.24,0A3.08,3.08,0,0,0,33.34,63.87Z"/></svg>