<svg id="图层_1" data-name="图层 1" xmlns="http://www.w3.org/2000/svg" viewBox="0 0 128 128"><defs><style>.cls-1{fill:#fff;}</style></defs><path class="cls-1" d="M65,27.73l5.74,11.64,3.39,6.86c1.17,2.37,2.68,4.48,5.51,5,4.29.79,8.65,1.26,13,1.89l7.45,1.08c.52.07,1,.13,1.56.22l.33.06c-.06,0,.88.24.47.14s.38.41,0,0a4.68,4.68,0,0,1,.38.39c-.33-.4-.07,0,0,0,.45.63-.07-.27.06.15s0,.54,0,.12c0,0-.07.84,0,.41s-.14.4-.14.39c.14-.31.09-.08-.08,0,.32-.22,0,0-.11.09l-.25.24-1.6,1.57-5.93,5.77-6,5.83c-1.46,1.42-3.08,2.74-3.81,4.7-.8,2.12-.2,4.35.17,6.5l1.39,8.07,1.41,8.23.42,2.48c0,.15.06.31.08.46,0-.35,0-.6,0-.1,0,1,.11-.22,0,.29-.07.2-.06.2,0,0a2.5,2.5,0,0,1-.23.39,1,1,0,0,1-1.2.25c-.52-.23-1-.53-1.52-.8l-6.92-3.64c-3.82-2-7.59-4.23-11.51-6a7.3,7.3,0,0,0-6.49.22c-.53.26-1.05.55-1.57.83l-6.86,3.6-7.74,4.07-2.54,1.34c-.23.11-.45.24-.67.35a1,1,0,0,1-.25.11c-.55.2.65-.09-.28.05-.11,0-.58-.07-.1,0-.48-.08-.29-.09-.12,0s-.79-.4-.44-.24-.36-.44-.05,0c-.12-.16-.2-.34-.31-.51.21.34,0,0,0-.14.11.6,0-.47,0-.47s-.12.73,0,.18c.06-.3.1-.61.16-.91L41,91.84c.78-4.52,1.61-9,2.33-13.57a7.35,7.35,0,0,0-1.92-6.52c-.27-.29-.57-.56-.86-.84l-5.24-5.1c-3.26-3.18-6.47-6.43-9.79-9.55L25.26,56c.37.37-.12-.36,0,0s-.14-.46-.13-.42c.17.63.1-.7,0,0a4.77,4.77,0,0,1,.13-.51c-.16.56.06-.1.15-.25-.28.45,0,0,.14-.12.4-.28-.6.28.17-.1-.44.22.46-.12.67-.16l.35,0c2-.3,3.91-.57,5.87-.85l15.2-2.21a7.27,7.27,0,0,0,5.56-4c.9-1.79,1.77-3.6,2.66-5.39l6.78-13.75.21-.42c0-.1.1-.2.16-.3.45-.77-.19.16.15-.2s-.44.49.16-.13c.09-.09.52-.2,0,0A4.42,4.42,0,0,1,64,27c-.54.11-.15,0,0,0,.86,0-.39,0,.13,0,.17,0,.67.27.17,0l.47.28c-.39-.22-.06,0,0,.08-.35-.45.18.34.2.37,1.83,3.4,7,.38,5.18-3a7.06,7.06,0,0,0-12.13-.39c-.8,1.29-1.39,2.75-2.06,4.11l-7.39,15c-.2.42-.39.85-.61,1.25-.35.65-.66.73-1.57.87-2,.31-4.07.59-6.1.88-5.09.74-10.19,1.44-15.27,2.22a7,7,0,0,0-5.76,8.31c.43,2.27,2.06,3.69,3.61,5.21L35.11,74c.57.57,1.16,1.12,1.73,1.69a4,4,0,0,1,.29.29,2.42,2.42,0,0,1,.25.31c.12.24,0,1.2.14.33-.21,1.64-.56,3.27-.84,4.89l-2.75,16a17.46,17.46,0,0,0-.32,2.27,7,7,0,0,0,3.63,6.31,7.14,7.14,0,0,0,6.76,0c.47-.23.93-.49,1.39-.73l14.85-7.81,2.64-1.38A2.92,2.92,0,0,1,64,95.74a2.92,2.92,0,0,1,1.12.46l2.55,1.34,14.94,7.85c.46.24.92.5,1.39.73a7.22,7.22,0,0,0,6.63.09A7,7,0,0,0,94.4,100a14.05,14.05,0,0,0-.31-2.32L91.32,81.52c-.28-1.62-.62-3.24-.84-4.87,0,.38-.1.41,0,0s.06-.32.35-.67c.08-.1.19-.18.27-.27.56-.57,1.14-1.11,1.7-1.66L105,62.23c1.56-1.52,3.21-2.93,3.71-5.18A7,7,0,0,0,103,48.6c-5-.78-10.1-1.47-15.16-2.2-2.07-.3-4.14-.59-6.21-.9l-.34,0a2.45,2.45,0,0,1-.77-.23c-.23-.15-.27-.26-.46-.59s-.39-.8-.59-1.19L72,28.42,70.18,24.7a3,3,0,0,0-5.18,3Z"/></svg>