<svg id="图层_1" data-name="图层 1" xmlns="http://www.w3.org/2000/svg" xmlns:xlink="http://www.w3.org/1999/xlink" viewBox="0 0 128 128"><defs><style>.cls-1{fill:none;}.cls-2{fill:url(#未命名的渐变_5);}</style><radialGradient id="未命名的渐变_5" cx="35.9" cy="30.33" r="90.68" gradientUnits="userSpaceOnUse"><stop offset="0" stop-color="#79acf9"/><stop offset="1" stop-color="#3a468a"/></radialGradient></defs><rect class="cls-1" x="-130.5" y="-132.5" width="389" height="393"/><path class="cls-2" d="M57.55,17.89a12.82,12.82,0,0,1,12.9,0h0l30.15,17.4a12.93,12.93,0,0,1,4.72,4.77,13.07,13.07,0,0,1,1.74,6.52V81.41a13.07,13.07,0,0,1-1.74,6.52,12.93,12.93,0,0,1-4.72,4.77h0L70.46,110.1h0a12.82,12.82,0,0,1-12.9,0h0L27.41,92.71h0a12.93,12.93,0,0,1-4.72-4.77,13.07,13.07,0,0,1-1.74-6.52V46.59a13.07,13.07,0,0,1,1.74-6.52,12.93,12.93,0,0,1,4.72-4.77h0l30.14-17.4Zm6.45,12a3.66,3.66,0,0,0-1.88.51h0L35.82,45.53h0a3.78,3.78,0,0,0-1.37,1.38,3.83,3.83,0,0,0-.5,1.9V79.18a3.83,3.83,0,0,0,.5,1.9,3.78,3.78,0,0,0,1.37,1.38h0l26.3,15.18a3.72,3.72,0,0,0,3.76,0h0L92.18,82.47h0a3.78,3.78,0,0,0,1.37-1.38,3.83,3.83,0,0,0,.5-1.9V48.82a3.83,3.83,0,0,0-.5-1.9,3.78,3.78,0,0,0-1.37-1.38h0L65.88,30.35A3.66,3.66,0,0,0,64,29.84Z"/></svg>