<svg id="图层_1" data-name="图层 1" xmlns="http://www.w3.org/2000/svg" viewBox="0 0 128 128"><defs><style>.cls-1{fill:#fff;}</style></defs><path class="cls-1" d="M40.19,87.6H37.55a10.83,10.83,0,0,1-4.46-.95,12.14,12.14,0,0,1-6.23-6.23A10.83,10.83,0,0,1,25.91,76V42.11a10.83,10.83,0,0,1,.95-4.46,12.14,12.14,0,0,1,6.23-6.23,10.67,10.67,0,0,1,4.46-1h52.9a10.67,10.67,0,0,1,4.46,1,12.14,12.14,0,0,1,6.23,6.23,10.83,10.83,0,0,1,1,4.46V76a10.76,10.76,0,0,1-1,4.54,12.08,12.08,0,0,1-2.6,3.7,12.39,12.39,0,0,1-3.8,2.49,11.46,11.46,0,0,1-4.53.91H67.12L48,101a4.65,4.65,0,0,1-2.82.9,4.93,4.93,0,0,1-2-.39,5.44,5.44,0,0,1-1.6-1.06,5.1,5.1,0,0,1-1.08-1.58,4.93,4.93,0,0,1-.39-2ZM97.33,75.7V42.37a6.93,6.93,0,0,0-.56-2.75,7.33,7.33,0,0,0-1.54-2.29,7.16,7.16,0,0,0-2.29-1.54,7,7,0,0,0-2.75-.56H37.81a7,7,0,0,0-2.75.56,7.16,7.16,0,0,0-2.29,1.54,7.33,7.33,0,0,0-1.54,2.29,6.93,6.93,0,0,0-.56,2.75V75.7a6.93,6.93,0,0,0,.56,2.75,7.33,7.33,0,0,0,1.54,2.29,7.16,7.16,0,0,0,2.29,1.54,7,7,0,0,0,2.75.56h4.76A2.43,2.43,0,0,1,45,85.22V96.86L65,83.29a2.24,2.24,0,0,1,1.38-.45H90.19a7,7,0,0,0,2.75-.56,7.16,7.16,0,0,0,2.29-1.54,7.33,7.33,0,0,0,1.54-2.29A6.93,6.93,0,0,0,97.33,75.7Z"/></svg>