<svg id="图层_1" data-name="图层 1" xmlns="http://www.w3.org/2000/svg" viewBox="0 0 128 128"><defs><style>.cls-1{fill:#fff;}</style></defs><path class="cls-1" d="M42.55,96.77a10.63,10.63,0,0,1-4.42-.94A12,12,0,0,1,32,89.67,10.63,10.63,0,0,1,31,85.25V56.47A10.62,10.62,0,0,1,32,52.06a12,12,0,0,1,6.16-6.17A10.79,10.79,0,0,1,42.55,45h7.32v4.71H42.8a6.82,6.82,0,0,0-2.72.55A7.21,7.21,0,0,0,36.29,54a6.82,6.82,0,0,0-.55,2.72V85a6.83,6.83,0,0,0,.55,2.73,7.21,7.21,0,0,0,3.79,3.79,6.82,6.82,0,0,0,2.72.55H61.65a7.13,7.13,0,0,0,2.17-.33,7,7,0,0,0,1.91-1,7.3,7.3,0,0,0,1.55-1.49,6.73,6.73,0,0,0,1-1.93h4.9a11.12,11.12,0,0,1-1.49,3.75,11.76,11.76,0,0,1-2.63,3,12.32,12.32,0,0,1-3.46,2,11.2,11.2,0,0,1-4,.72ZM66.1,82.64a10.63,10.63,0,0,1-4.42-.94,12,12,0,0,1-6.16-6.16,10.63,10.63,0,0,1-.94-4.42V42.34a10.62,10.62,0,0,1,.94-4.41,12,12,0,0,1,6.16-6.17,10.79,10.79,0,0,1,4.42-.93H85.45a10.79,10.79,0,0,1,4.42.93A12,12,0,0,1,96,37.93,10.62,10.62,0,0,1,97,42.34V71.12A10.63,10.63,0,0,1,96,75.54a12,12,0,0,1-6.16,6.16,10.63,10.63,0,0,1-4.42.94Zm19.1-4.71a7,7,0,0,0,2.72-.55,7.21,7.21,0,0,0,3.79-3.79,6.83,6.83,0,0,0,.55-2.73V42.6a6.78,6.78,0,0,0-.55-2.72,7.12,7.12,0,0,0-3.79-3.79,6.82,6.82,0,0,0-2.72-.55H66.36a6.83,6.83,0,0,0-2.73.55,7.12,7.12,0,0,0-3.79,3.79,6.78,6.78,0,0,0-.55,2.72V70.86a6.83,6.83,0,0,0,.55,2.73,7.21,7.21,0,0,0,3.79,3.79,7,7,0,0,0,2.73.55Z"/></svg>