<svg id="图层_1" data-name="图层 1" xmlns="http://www.w3.org/2000/svg" viewBox="0 0 128 128"><defs><style>.cls-1{fill:#fff;}</style></defs><path class="cls-1" d="M99.71,37.61a2.34,2.34,0,0,1-.32,1.3,2,2,0,0,1-.84.73A3.74,3.74,0,0,1,97.4,40a10.93,10.93,0,0,1-1.3.08l-.74,0-.67,0L88.51,93.44a9.53,9.53,0,0,1-1,3.33,9.48,9.48,0,0,1-5,4.46,9.13,9.13,0,0,1-3.43.65H48.94a9.09,9.09,0,0,1-3.43-.65,9.48,9.48,0,0,1-5-4.46,9.53,9.53,0,0,1-1-3.33L33.31,40h-.37l-.74,0h-.37A10.69,10.69,0,0,1,30.56,40a3.31,3.31,0,0,1-1.13-.33,2,2,0,0,1-.82-.75,2.26,2.26,0,0,1-.32-1.26,2.43,2.43,0,0,1,2.38-2.38H52.32a10.69,10.69,0,0,1,1.47-3.79,12.18,12.18,0,0,1,2.68-3,12.41,12.41,0,0,1,3.51-2,11.89,11.89,0,0,1,8,0,12.41,12.41,0,0,1,3.51,2,12.18,12.18,0,0,1,2.68,3,10.69,10.69,0,0,1,1.47,3.79H97.33a2.43,2.43,0,0,1,2.38,2.38ZM89.89,40H38.11l6.1,52.93a4.66,4.66,0,0,0,4.73,4.2H79.06a4.76,4.76,0,0,0,1.72-.31,5,5,0,0,0,1.45-.88,4.77,4.77,0,0,0,1-1.34,5.08,5.08,0,0,0,.52-1.67ZM54.48,80.46V56.65a2.28,2.28,0,0,1,.7-1.67,2.39,2.39,0,0,1,4.06,1.67V80.46a2.38,2.38,0,0,1-4.76,0Zm2.79-45.23H70.73a6.76,6.76,0,0,0-1-1.95,7.2,7.2,0,0,0-1.56-1.51,7.35,7.35,0,0,0-1.94-1,7.43,7.43,0,0,0-4.38,0,7.35,7.35,0,0,0-1.94,1,7.2,7.2,0,0,0-1.56,1.51A6.53,6.53,0,0,0,57.27,35.23ZM68.76,80.46V56.65a2.38,2.38,0,0,1,4.76,0V80.46a2.28,2.28,0,0,1-.7,1.67,2.39,2.39,0,0,1-4.06-1.67Z"/></svg>