<svg id="图层_1" data-name="图层 1" xmlns="http://www.w3.org/2000/svg" viewBox="0 0 128 128"><defs><style>.cls-1{fill:#fff;}</style></defs><path class="cls-1" d="M66.38,42.85a18.7,18.7,0,0,1-1.88,8.24,19,19,0,0,1-5.26,6.61V90.24a10.73,10.73,0,0,1-1,4.54,12,12,0,0,1-2.6,3.7,12.21,12.21,0,0,1-3.8,2.49,11.91,11.91,0,0,1-9.18,0,12.14,12.14,0,0,1-3.78-2.54,12,12,0,0,1-2.55-3.78A11.63,11.63,0,0,1,35.43,90V57.7a19,19,0,0,1-5.26-6.61,18.7,18.7,0,0,1-1.88-8.24,19.11,19.11,0,0,1,.65-4.92,19.83,19.83,0,0,1,1.88-4.62,19.25,19.25,0,0,1,3-4,16.22,16.22,0,0,1,4-3A7.84,7.84,0,0,1,39,25.87a4.29,4.29,0,0,1,1.22-.16,4.58,4.58,0,0,1,1.86.37,4.91,4.91,0,0,1,1.51,1,4.85,4.85,0,0,1,1,1.51A4.58,4.58,0,0,1,45,30.47v10h4.76v-10a4.58,4.58,0,0,1,.37-1.86,5,5,0,0,1,1-1.51,4.91,4.91,0,0,1,1.51-1,4.58,4.58,0,0,1,1.86-.37,4.41,4.41,0,0,1,1.23.16,8.21,8.21,0,0,1,1.15.47,16.64,16.64,0,0,1,4,3,18.86,18.86,0,0,1,3,4,20.41,20.41,0,0,1,1.9,4.63A18.5,18.5,0,0,1,66.38,42.85ZM54.48,55.2a13,13,0,0,0,3-2.27A14.74,14.74,0,0,0,59.72,50a14.18,14.18,0,0,0,1.42-3.43,14.49,14.49,0,0,0,.48-3.72,14,14,0,0,0-1.88-7.16,14.62,14.62,0,0,0-5.26-5.22V45.23H40.19V30.47a14.62,14.62,0,0,0-5.26,5.22,14.5,14.5,0,0,0-1.39,10.88A13.77,13.77,0,0,0,35,50a14.74,14.74,0,0,0,2.25,2.93,13,13,0,0,0,3,2.27V90a6.9,6.9,0,0,0,.56,2.75,7.27,7.27,0,0,0,3.83,3.83,7.06,7.06,0,0,0,5.51,0A7.16,7.16,0,0,0,52.38,95a7.33,7.33,0,0,0,1.54-2.29A6.9,6.9,0,0,0,54.48,90Zm38.09,11V90.24a10.88,10.88,0,0,1-1,4.54,12.13,12.13,0,0,1-2.6,3.7A12.33,12.33,0,0,1,85.2,101a11.76,11.76,0,0,1-9.07,0,12.21,12.21,0,0,1-3.8-2.49,12,12,0,0,1-2.6-3.7,10.73,10.73,0,0,1-1-4.54V66.18a2.28,2.28,0,0,1,.32-1.29,2,2,0,0,1,.82-.7A3.5,3.5,0,0,1,71,63.87a10.24,10.24,0,0,1,1.25-.07h1.26V40.55c-.15-.27-.35-.65-.61-1.14s-.52-1-.78-1.5-.49-1-.69-1.51a3.23,3.23,0,0,1-.3-1.17,6.12,6.12,0,0,1,.34-1.51c.22-.73.47-1.51.74-2.34s.55-1.62.82-2.38.47-1.31.59-1.66a2.24,2.24,0,0,1,.88-1.17,2.34,2.34,0,0,1,1.39-.46h9.52a2.35,2.35,0,0,1,1.4.44,2.43,2.43,0,0,1,.87,1.19c.1.35.29.9.58,1.66s.56,1.55.84,2.38.52,1.61.74,2.34a6.65,6.65,0,0,1,.34,1.51,3.23,3.23,0,0,1-.3,1.17c-.2.48-.43,1-.69,1.51s-.52,1-.78,1.5-.47.87-.62,1.14V63.8h1.27a10.36,10.36,0,0,1,1.25.07,3.58,3.58,0,0,1,1.11.32,2,2,0,0,1,.82.7A2.28,2.28,0,0,1,92.57,66.18Zm-19,2.38v4.76H87.8V68.56ZM87.8,90V78.08H73.52V90a6.9,6.9,0,0,0,.56,2.75A7.33,7.33,0,0,0,75.62,95a7.16,7.16,0,0,0,2.29,1.54,7.06,7.06,0,0,0,5.51,0,7.27,7.27,0,0,0,3.83-3.83A6.89,6.89,0,0,0,87.8,90ZM78.28,63.8H83V40a2.45,2.45,0,0,1,.26-1.08L85.24,35l-1.53-4.57h-6.1L76.09,35,78,38.91A2.32,2.32,0,0,1,78.28,40Z"/></svg>