<svg id="图层_1" data-name="图层 1" xmlns="http://www.w3.org/2000/svg" viewBox="0 0 128 128"><defs><style>.cls-1{fill:#fff;}</style></defs><path class="cls-1" d="M79.68,28.4l-6.87,7.84L57.46,53.79l-16,18.29c-2.93,3.34-5.89,6.66-8.79,10-1.35,1.58-1.38,3.74-1.74,5.72l-2,10.9-.13.78c-.39,2.11,1.33,4.44,3.69,3.69l10.42-3.36c1.55-.5,3.12-1,4.67-1.5a4.12,4.12,0,0,0,1.86-1.23L61.13,83.79,80.42,61.74,94.76,45.35c1.84-2.1,3.69-4.14,4.26-7a11.3,11.3,0,0,0-8.1-13.27,11.52,11.52,0,0,0-2.74-.37,10.09,10.09,0,0,0-1.35.08c-.32,0-.66.07-1,.14s-.23,0,.28,0l-.79.1a11.08,11.08,0,0,0-5.67,3.38,3,3,0,0,0,4.24,4.24,5.83,5.83,0,0,1,1.53-1.27c-.47.26,1.18-.64.72-.34l.38-.12c-.67,0-.55,0,.39-.1a6.87,6.87,0,0,1,1.57-.1c1,.06-.43-.14.5.07a7.2,7.2,0,0,1,1.22.38c-.38-.17.21.12.29.17.23.14.46.27.68.42-.4-.28.39.34.37.33a6,6,0,0,1,.65.69c-.3-.38.29.45.28.42A8.6,8.6,0,0,1,93,34c-.2-.46.15.54.14.5a2.56,2.56,0,0,1,.17.83,6.31,6.31,0,0,1-1.93,4.82L82,50.9,52.42,84.65l-7.53,8.61,1.32-.77L30.92,97.41l3.69,3.69,2.85-15.81-.77,1.33L52.62,68.41,78.05,39.35l5.87-6.71a3.08,3.08,0,0,0,0-4.24A3,3,0,0,0,79.68,28.4Z"/><path class="cls-1" d="M74.66,39.17l10.47,9.17,1.48,1.29a3.07,3.07,0,0,0,4.25,0,3,3,0,0,0,0-4.24L80.39,36.23l-1.48-1.3a3.07,3.07,0,0,0-4.25,0,3,3,0,0,0,0,4.24Z"/></svg>