<svg id="图层_1" data-name="图层 1" xmlns="http://www.w3.org/2000/svg" viewBox="0 0 128 128"><defs><style>.cls-1{fill:#fff;}</style></defs><path class="cls-1" d="M102,37.8A13.78,13.78,0,0,1,101,43a13,13,0,0,1-2.91,4.43l-47.8,47.8a4.29,4.29,0,0,1-1,.74,6.39,6.39,0,0,1-1.21.49l-18.51,4.64a3.07,3.07,0,0,1-.56.07,2.36,2.36,0,0,1-1.69-.69,2.25,2.25,0,0,1-.71-1.66,3.31,3.31,0,0,1,.08-.6l4.63-18.51a7.23,7.23,0,0,1,.49-1.22,4.07,4.07,0,0,1,.75-1L80.87,29.16A12.33,12.33,0,0,1,85,26.45a12.73,12.73,0,0,1,4.81-.95,12.23,12.23,0,0,1,8.73,3.57A11.89,11.89,0,0,1,101.1,33,12.43,12.43,0,0,1,102,37.8ZM32.29,95.51l14.62-3.67L89.36,49.4l-11-11L36,80.89ZM97.25,38a8.13,8.13,0,0,0-.55-3,7.46,7.46,0,0,0-1.53-2.45,6.76,6.76,0,0,0-2.37-1.62,7.75,7.75,0,0,0-3-.58,7.39,7.39,0,0,0-2.51.39,8.15,8.15,0,0,0-2,1.06,13.15,13.15,0,0,0-1.74,1.54c-.55.57-1.13,1.17-1.76,1.79l11,11c.62-.6,1.21-1.18,1.76-1.76a12.55,12.55,0,0,0,1.44-1.79,8.74,8.74,0,0,0,1-2A8,8,0,0,0,97.25,38Z"/></svg>