<svg id="图层_1" data-name="图层 1" xmlns="http://www.w3.org/2000/svg" viewBox="0 0 128 128"><defs><style>.cls-1{fill:#fff;}</style></defs><path class="cls-1" d="M90.19,73.32a6.39,6.39,0,0,1,2.69.59,7.84,7.84,0,0,1,3.85,3.85,6.33,6.33,0,0,1,.6,2.7V94.74a6.33,6.33,0,0,1-.6,2.7,8,8,0,0,1-1.58,2.27,7.84,7.84,0,0,1-2.27,1.58,6.24,6.24,0,0,1-2.69.59H37.81a6.24,6.24,0,0,1-2.69-.59,7.84,7.84,0,0,1-3.85-3.85,6.33,6.33,0,0,1-.6-2.7V80.46a6.33,6.33,0,0,1,.6-2.7,7.79,7.79,0,0,1,1.58-2.27,7.9,7.9,0,0,1,2.27-1.58,6.39,6.39,0,0,1,2.69-.59Zm2.38,7.14a2.35,2.35,0,0,0-.65-1.73,2.38,2.38,0,0,0-1.73-.65H37.81a2.24,2.24,0,0,0-2.38,2.38V94.74a2.29,2.29,0,0,0,2.38,2.38H90.19a2.24,2.24,0,0,0,2.38-2.38ZM47.34,63.83a2.73,2.73,0,0,1,.18-.93L61.81,27.19a1.86,1.86,0,0,1,.89-1,2.76,2.76,0,0,1,1.3-.33,2.68,2.68,0,0,1,1.32.31,2,2,0,0,1,.87,1L80.48,62.9a2.73,2.73,0,0,1,.18.93,2.23,2.23,0,0,1-.7,1.66,2.32,2.32,0,0,1-1.68.69A2.27,2.27,0,0,1,77,65.77a2.71,2.71,0,0,1-.87-1.08L71.92,54.27H56.08L51.91,64.69a2.75,2.75,0,0,1-.85,1.08,2.19,2.19,0,0,1-1.31.41,2.44,2.44,0,0,1-1.69-.67A2.21,2.21,0,0,1,47.34,63.83ZM70,49.51l-6-15-6,15Z"/></svg>