<svg id="图层_1" data-name="图层 1" xmlns="http://www.w3.org/2000/svg" viewBox="0 0 128 128"><defs><style>.cls-1{fill:#fff;}</style></defs><path class="cls-1" d="M49.53,78.08H35.62L30.49,90.87A2.64,2.64,0,0,1,29.63,92a2.1,2.1,0,0,1-1.3.41,2.38,2.38,0,0,1-1.69-.67A2.15,2.15,0,0,1,25.91,90a2.45,2.45,0,0,1,.19-.93L40.38,53.38a2.19,2.19,0,0,1,2.19-1.49,2.06,2.06,0,0,1,1.34.39,3.4,3.4,0,0,1,.86,1.1,11.55,11.55,0,0,1,.59,1.43c.18.51.36,1,.56,1.47l2.72,6.77q2,5.13,4.07,10.19L56.78,83.4,74.19,37c.3-.81.6-1.65.89-2.51s.62-1.68,1-2.47a3,3,0,0,1,.88-1.13,2.06,2.06,0,0,1,1.35-.43,2.09,2.09,0,0,1,1.38.43A3.09,3.09,0,0,1,80.51,32a14.1,14.1,0,0,1,.73,1.82c.21.65.43,1.27.65,1.86L94.8,70.16l.89,2.3,1.45,3.74q.83,2.1,1.69,4.41c.59,1.54,1.12,3,1.6,4.27s.88,2.45,1.19,3.39a9.07,9.07,0,0,1,.47,1.71,2.38,2.38,0,0,1-4.61.82L90.93,73.32H65.64L59.09,90.8a2.31,2.31,0,0,1-.86,1.13,2.18,2.18,0,0,1-1.33.43A2.37,2.37,0,0,1,55.56,92a2.39,2.39,0,0,1-.9-1.1Zm-7-17.41-5,12.65H47.63ZM78.28,39.62,67.42,68.56H89.14Z"/></svg>