<svg id="图层_1" data-name="图层 1" xmlns="http://www.w3.org/2000/svg" xmlns:xlink="http://www.w3.org/1999/xlink" viewBox="0 0 128 128"><defs><style>.cls-1{fill:url(#未命名的渐变_7);}.cls-2{fill:url(#未命名的渐变_6);}</style><radialGradient id="未命名的渐变_7" cx="22.35" cy="66.12" r="49.37" gradientUnits="userSpaceOnUse"><stop offset="0" stop-color="#f18d00"/><stop offset="1" stop-color="#f7ab1e"/></radialGradient><radialGradient id="未命名的渐变_6" cx="106.89" cy="103.99" fx="152.72468737756753" r="46.22" gradientUnits="userSpaceOnUse"><stop offset="0" stop-color="#ea5504"/><stop offset="1" stop-color="#f18d00"/></radialGradient></defs><path class="cls-1" d="M25.5,17.5h50a8,8,0,0,1,8,8V63.08a8,8,0,0,1-8,8h-42a8,8,0,0,0-5.27,2L17.5,82.46v-57A8,8,0,0,1,25.5,17.5Z"/><path class="cls-2" d="M91,55V71.15a8,8,0,0,1-8,8H47a8,8,0,0,0-8,8V90a8,8,0,0,0,8,8H95.55a5.9,5.9,0,0,1,4.18,1.73L110.5,110.5V55a8,8,0,0,0-8-8H99A8,8,0,0,0,91,55Z"/></svg>