<svg id="图层_1" data-name="图层 1" xmlns="http://www.w3.org/2000/svg" xmlns:xlink="http://www.w3.org/1999/xlink" viewBox="0 0 128 128"><defs><style>.cls-1{fill:url(#未命名的渐变_7);}.cls-2{fill:url(#未命名的渐变_6);}</style><radialGradient id="未命名的渐变_7" cx="27.69" cy="70.13" r="42.68" gradientUnits="userSpaceOnUse"><stop offset="0" stop-color="#f18d00"/><stop offset="1" stop-color="#f7ab1e"/></radialGradient><radialGradient id="未命名的渐变_6" cx="101.6" cy="98.71" fx="141.49000086383825" r="40.23" gradientUnits="userSpaceOnUse"><stop offset="0" stop-color="#ea5504"/><stop offset="1" stop-color="#f18d00"/></radialGradient></defs><path class="cls-1" d="M31.5,27.5h41a8,8,0,0,1,8,8V65.08a8,8,0,0,1-8,8h-33a8,8,0,0,0-5.27,2L23.5,84.46v-49A8,8,0,0,1,31.5,27.5Z"/><path class="cls-2" d="M88,53.92V72.15a8,8,0,0,1-8,8H52.92A5.93,5.93,0,0,0,47,86.08h0A5.92,5.92,0,0,0,52.92,92H89.55a5.9,5.9,0,0,1,4.18,1.73L104.5,104.5V53.92A5.92,5.92,0,0,0,98.58,48H93.92A5.92,5.92,0,0,0,88,53.92Z"/></svg>