<svg id="图层_1" data-name="图层 1" xmlns="http://www.w3.org/2000/svg" viewBox="0 0 128 128"><defs><style>.cls-1{fill:#fff;}</style></defs><path class="cls-1" d="M93.71,84H38.63A33.22,33.22,0,0,1,34,84c.25,0-.2-.15-.21-.16s-.34-.33-.2-.14c-.26-.35-.22-.27-.25-.71,0-.22,0-.44,0-.65V51.7c0-2.21-.13-4.48,0-6.69a.94.94,0,0,1,1-1H75.11c6.12,0,12.23-.07,18.35,0a5.81,5.81,0,0,1,.59,0c-.38,0,.16.1.19.11-.17-.08-.23-.12.16.13-.15-.09.13.19.14.2.13.2.14.15.17.57,0,.71,0,1.43,0,2.14v35.3c0,.18,0,.36,0,.53a.94.94,0,0,1-1,1,3.06,3.06,0,0,0-3,3,3,3,0,0,0,3,3,7.16,7.16,0,0,0,7-7.08c0-.86,0-1.73,0-2.6V67.73c0-7.54.25-15.14,0-22.68a7.14,7.14,0,0,0-7-7c-.45,0-.9,0-1.35,0H54.3c-6.57,0-13.14-.06-19.7,0a7.29,7.29,0,0,0-6.24,3.28A8.46,8.46,0,0,0,27.29,46V82.17A8,8,0,0,0,29,87.59,7.28,7.28,0,0,0,34.68,90c2.35,0,4.7,0,7,0h52C97.57,90,97.57,84,93.71,84Z"/><path class="cls-1" d="M22,43V40c0-.11,0-.22,0-.33s.09-.94,0-.35,0-.05,0-.19.09-.38.15-.57.12-.37.18-.56.15-.37-.05.09,0,.07,0,0a6.61,6.61,0,0,1,.57-1c.07-.11.44-.61.1-.16s.13-.14.23-.24c.24-.26.51-.49.78-.73s-.57.39-.27.2L24,36a6.37,6.37,0,0,1,.55-.35A4.11,4.11,0,0,1,25,35.4l.26-.12c.28-.15-.43.2-.38.16a3,3,0,0,1,1.19-.36l.51-.1c-1,.2-.33.05-.05,0H30a3,3,0,0,0,0-6H27.23a11.72,11.72,0,0,0-5.32,1.25A11.09,11.09,0,0,0,16,40c0,1,0,2,0,3a3,3,0,0,0,6,0Z"/><path class="cls-1" d="M112,43V40.23a11.72,11.72,0,0,0-1.25-5.32A11.09,11.09,0,0,0,101,29c-1,0-2,0-3,0a3,3,0,0,0,0,6h3.31c.15,0,.94.09.35,0s0,0,.19,0,.38.09.57.15.37.12.56.18.37.15-.09,0-.07,0,0,0a6.61,6.61,0,0,1,1,.57c.11.07.61.44.16.1s.14.13.24.23c.26.24.49.51.73.78s-.39-.57-.2-.27L105,37a6.37,6.37,0,0,1,.35.55,4.11,4.11,0,0,1,.27.51l.12.26c.15.28-.2-.43-.16-.38a3,3,0,0,1,.36,1.19c0,.17.06.34.1.51-.2-1,0-.33,0-.05s0,.39,0,.58V43a3,3,0,0,0,6,0Z"/><path class="cls-1" d="M17,85v2.77a11.72,11.72,0,0,0,1.25,5.32A11.09,11.09,0,0,0,28,99c1,0,2,0,3,0a3,3,0,0,0,0-6H27.69c-.15,0-.94-.09-.35,0s-.05,0-.19,0-.38-.09-.57-.15-.37-.12-.56-.18-.37-.15.09,0,.07,0,0,0a6.61,6.61,0,0,1-1-.57c-.11-.07-.61-.44-.16-.1s-.14-.13-.24-.23c-.26-.24-.49-.51-.73-.78s.39.57.2.27L24,91.05a6.37,6.37,0,0,1-.35-.55A4.11,4.11,0,0,1,23.4,90l-.12-.26c-.15-.28.2.43.16.38a3,3,0,0,1-.36-1.19c0-.17-.06-.34-.1-.51.2,1,.05.33,0,0s0-.39,0-.58V85a3,3,0,0,0-6,0Z"/><path class="cls-1" d="M107,85v3c0,.11,0,.22,0,.33s-.09.94,0,.35,0,0,0,.19-.09.38-.15.57-.12.37-.18.56-.15.37,0-.09,0-.07,0,0a6.61,6.61,0,0,1-.57,1c-.07.11-.44.61-.1.16s-.13.14-.23.24c-.24.26-.51.49-.78.73s.57-.39.27-.2l-.17.12a6.37,6.37,0,0,1-.55.35,4.11,4.11,0,0,1-.51.27l-.26.12c-.28.15.43-.2.38-.16a3,3,0,0,1-1.19.36l-.51.1c1-.2.33,0,0,0H99a3,3,0,0,0,0,6h2.77a11.72,11.72,0,0,0,5.32-1.25A11.09,11.09,0,0,0,113,88c0-1,0-2,0-3a3,3,0,0,0-6,0Z"/></svg>