<svg id="图层_1" data-name="图层 1" xmlns="http://www.w3.org/2000/svg" viewBox="0 0 128 128"><defs><style>.cls-1{fill:#fff;}</style></defs><path class="cls-1" d="M28.29,25.71a2.31,2.31,0,0,1,1.68.7l71.41,71.42A2.37,2.37,0,1,1,98,101.18L77.5,80.68a16.63,16.63,0,0,1-2.69,2.92,17.35,17.35,0,0,1-3.24,2.18,16.57,16.57,0,0,1-3.66,1.36A16.86,16.86,0,0,1,64,87.6a16.09,16.09,0,0,1-6.49-1.32,16.8,16.8,0,0,1-8.85-8.85,16.09,16.09,0,0,1-1.32-6.49,16.26,16.26,0,0,1,1.84-7.61,16.85,16.85,0,0,1,5.11-5.93l-7.51-7.52a33.51,33.51,0,0,0-8.24,7.56A36.73,36.73,0,0,0,33,67.22c-.28.72-.52,1.44-.73,2.16s-.42,1.43-.61,2.15a3.07,3.07,0,0,1-.84,1.34,2.08,2.08,0,0,1-1.47.52A2.43,2.43,0,0,1,27,71a3.07,3.07,0,0,1,.07-.56A42.67,42.67,0,0,1,33,57,38,38,0,0,1,43.32,46.46l-16.7-16.7a2.38,2.38,0,0,1,1.67-4.05ZM57.68,60.86A11.89,11.89,0,0,0,53,75.57a11.9,11.9,0,0,0,6.34,6.34,12,12,0,0,0,10.42-.56,12.05,12.05,0,0,0,4.33-4.13ZM53,41.66A36.12,36.12,0,0,1,64,40a35.49,35.49,0,0,1,12.85,2.32,37.38,37.38,0,0,1,10.81,6.42,39.66,39.66,0,0,1,8.18,9.64,43.65,43.65,0,0,1,5.06,12,3.33,3.33,0,0,1,.08.59,2.22,2.22,0,0,1-.73,1.66,2.37,2.37,0,0,1-1.69.69,2,2,0,0,1-1.43-.5,3.41,3.41,0,0,1-.84-1.32c-.13-.38-.24-.75-.34-1.12l-.18-.71c-.1-.37-.21-.74-.34-1.11a41.24,41.24,0,0,0-2.3-5.51,35.91,35.91,0,0,0-5.23-7.47A33.46,33.46,0,0,0,81,49.79,32.76,32.76,0,0,0,73,46.07a30.53,30.53,0,0,0-9-1.32,31.52,31.52,0,0,0-7.06.82ZM65.71,54.35a16.17,16.17,0,0,1,5.51,1.56A17,17,0,0,1,79,63.68a16.11,16.11,0,0,1,1.56,5.51Z"/></svg>