<svg id="图层_1" data-name="图层 1" xmlns="http://www.w3.org/2000/svg" xmlns:xlink="http://www.w3.org/1999/xlink" viewBox="0 0 128 128"><defs><style>.cls-1{fill:url(#未命名的渐变_5);}.cls-2{fill:url(#未命名的渐变_7);}</style><radialGradient id="未命名的渐变_5" cx="64.87" cy="32.92" r="76.27" gradientUnits="userSpaceOnUse"><stop offset="0" stop-color="#d0d0d0"/><stop offset="1" stop-color="#a5a5a5"/></radialGradient><radialGradient id="未命名的渐变_7" cx="63.66" cy="18.66" r="50.45" gradientUnits="userSpaceOnUse"><stop offset="0" stop-color="#ef9725"/><stop offset="1" stop-color="#d24d0b"/></radialGradient></defs><path class="cls-1" d="M23.32,55.49V100.6a8.8,8.8,0,0,0,8.8,8.81H45.3V67.3H82.7v42.11H95.93a8.81,8.81,0,0,0,8.81-8.81V55.49L64,27.43Z"/><path class="cls-2" d="M22.9,60.31l14.76-11L61.09,31.89l5.44-4h-5l14.76,11L99.73,56.27l5.43,4c2.08,1.55,5.62.41,6.77-1.78,1.37-2.59.45-5.12-1.78-6.77l-14.76-11L72,23.34l-5.43-4a4.79,4.79,0,0,0-5,0l-14.77,11L23.33,47.72l-5.43,4c-2.07,1.54-3.34,4.35-1.78,6.77,1.32,2,4.55,3.43,6.78,1.78Z"/></svg>