<svg id="图层_1" data-name="图层 1" xmlns="http://www.w3.org/2000/svg" viewBox="0 0 128 128"><defs><style>.cls-1{fill:#fff;}</style></defs><path class="cls-1" d="M103.75,64a39.86,39.86,0,0,1-7.38,23.1,40.42,40.42,0,0,1-18.62,14.22,40,40,0,0,1-24.64.92,38.46,38.46,0,0,1-11-5,40.06,40.06,0,0,1-9-8.11C22.65,76.39,21.4,57.57,30,43.37A40,40,0,0,1,47.74,27.7a24.77,24.77,0,0,1,2.35-1c1-.38,2.11-.73,3.18-1A39.29,39.29,0,0,1,71.78,25,40.1,40.1,0,0,1,103.3,57.9a43.27,43.27,0,0,1,.45,6.1c0,3.86,6,3.87,6,0a45.82,45.82,0,0,0-8.39-26.39A46.66,46.66,0,0,0,79.51,21,45.75,45.75,0,0,0,45,105.62a46.54,46.54,0,0,0,28.2,3.2,46,46,0,0,0,35.93-37.46,49,49,0,0,0,.61-7.36C109.77,60.14,103.77,60.13,103.75,64Z"/><path class="cls-1" d="M62.38,20.19A72,72,0,0,0,49.63,38C42.77,51,39.86,66.1,44,80.49c3.12,11,9.84,20.49,17.93,28.38a3,3,0,0,0,4.24,0,47.36,47.36,0,0,0,4.08-4.42,75.19,75.19,0,0,0,8.56-12.58c7-13,9.54-28,5.54-42.3-3.12-11.19-9.76-21-17.68-29.38-2.66-2.81-6.9,1.43-4.24,4.24,6.66,7,12.41,15.27,15.43,24.42a54,54,0,0,1,1.54,5.74,35.81,35.81,0,0,1,.75,5.23,50.32,50.32,0,0,1,.14,5.49q0,1.26-.15,2.52c0,.39-.06.77-.1,1.16l-.09.72c0,.21-.08.65,0,.21a54.59,54.59,0,0,1-2.28,9.69c-.25.75-.52,1.5-.8,2.24-.12.32-.25.65-.38,1s-.53,1.3-.28.71c-.58,1.37-1.22,2.72-1.89,4a70.36,70.36,0,0,1-4.06,6.92c-.65,1-1.34,2-2,2.92l-.93,1.23c.56-.74,0,0-.11.14l-.51.64a49.64,49.64,0,0,1-4.72,5.21h4.24c-6.73-6.58-12.59-14.44-15.61-23.26a49.75,49.75,0,0,1-1.58-5.74c-.18-.85-.34-1.72-.47-2.58-.1-.68-.2-1.49-.28-2.54A49.23,49.23,0,0,1,48,65.08c0-.86.08-1.72.15-2.57,0-.4.07-.8.11-1.2,0-.24.06-.49.08-.74.06-.55,0,.1,0-.23a56.39,56.39,0,0,1,2.3-9.75c.49-1.51,1.06-3,1.66-4.47.22-.54.05-.13,0,0l.27-.61c.14-.32.28-.64.43-1,.33-.74.69-1.47,1-2.2a76.8,76.8,0,0,1,4.12-7.22c.66-1,1.34-2,2-3,.31-.45.63-.89,1-1.32l.44-.59c.14-.18.76-1,.17-.22a61.21,61.21,0,0,1,4.77-5.53C69.38,21.72,65.14,17.48,62.38,20.19Z"/><path class="cls-1" d="M25.7,51h76.6c3.86,0,3.87-6,0-6H25.7c-3.86,0-3.87,6,0,6Z"/><path class="cls-1" d="M26.7,84h76.6c3.86,0,3.87-6,0-6H26.7c-3.86,0-3.87,6,0,6Z"/></svg>