<svg id="图层_1" data-name="图层 1" xmlns="http://www.w3.org/2000/svg" viewBox="0 0 128 128"><defs><style>.cls-1{fill:#fff;}</style></defs><path class="cls-1" d="M43.32,72.39a21.47,21.47,0,0,1-6.89-3.2A24.85,24.85,0,0,1,31,64a24,24,0,0,1-3.61-6.63,22,22,0,0,1-1.3-7.49,24.38,24.38,0,0,1,3.19-12.12,23.11,23.11,0,0,1,3.67-4.85,23.52,23.52,0,0,1,4.78-3.76,23.08,23.08,0,0,1,5.69-2.43,23.53,23.53,0,0,1,6.39-.85A23.16,23.16,0,0,1,59,27.7a24,24,0,0,1,7.54,5.08,23.72,23.72,0,0,1,5.07,7.54,23.13,23.13,0,0,1,1.86,9.25H68.74a21,21,0,0,0-.14-2.38,19.76,19.76,0,0,0-.45-2.37H59.07c0,.79.09,1.58.13,2.37s.06,1.58.06,2.38c0,1.6-.07,3.17-.21,4.7s-.3,3.09-.5,4.67v.11H45.8c.13.72.27,1.42.43,2.1s.34,1.36.54,2.05ZM31.39,44.82a19.76,19.76,0,0,0-.45,2.37,18.88,18.88,0,0,0,0,4.75,19.76,19.76,0,0,0,.45,2.37h9.08c0-.79-.1-1.58-.13-2.37s-.06-1.58-.06-2.37,0-1.59.06-2.38.08-1.58.13-2.37Zm1.92-4.74H41a37.51,37.51,0,0,1,2.26-8.34A18.53,18.53,0,0,0,37.54,35,18.81,18.81,0,0,0,33.31,40.08Zm0,19a18.39,18.39,0,0,0,4.23,5,19.47,19.47,0,0,0,5.67,3.32A37.51,37.51,0,0,1,41,59.05ZM67.56,94.63a2.29,2.29,0,0,1-.69,1.69,2.32,2.32,0,0,1-1.68.68,2.35,2.35,0,0,1-1.36-.42A2.38,2.38,0,0,1,63,95.45l-3-7.94H49l-3,7.94a2.32,2.32,0,0,1-.87,1.13,2.34,2.34,0,0,1-1.35.42,2.39,2.39,0,0,1-2.37-2.37,2.09,2.09,0,0,1,.15-.85l3.55-9.42q1.81-4.77,3.58-9.52t3.54-9.52a1.84,1.84,0,0,1,.89-1,2.83,2.83,0,0,1,1.33-.34,2.72,2.72,0,0,1,1.34.34,2.09,2.09,0,0,1,.89,1q1.77,4.77,3.52,9.52t3.59,9.52l3.56,9.42A2.09,2.09,0,0,1,67.56,94.63ZM54.33,44.82H45.21c-.05.79-.09,1.58-.13,2.37S45,48.77,45,49.57s0,1.58.06,2.37.08,1.58.13,2.37h9.12c.05-.79.09-1.58.13-2.37s0-1.58,0-2.37,0-1.59,0-2.38S54.38,45.61,54.33,44.82ZM45.8,40.08h7.93c-.1-.52-.26-1.27-.48-2.24s-.5-2-.83-3a16.61,16.61,0,0,0-1.17-2.72,3.3,3.3,0,0,0-1.44-1.56h-.08a3.26,3.26,0,0,0-1.44,1.56,15.79,15.79,0,0,0-1.17,2.72q-.49,1.5-.84,3C46.06,38.81,45.9,39.56,45.8,40.08Zm8.71,32.83-3.7,9.86h7.41ZM66.22,40.08a18.93,18.93,0,0,0-9.93-8.34,38.06,38.06,0,0,1,2.26,8.34ZM102,56.68V63.8a2.35,2.35,0,0,1-4,1.66,2.25,2.25,0,0,1-.7-1.66V59.05H68.74V63.8a2.25,2.25,0,0,1-.7,1.66,2.32,2.32,0,0,1-3.34,0A2.25,2.25,0,0,1,64,63.8V56.68a2.39,2.39,0,0,1,2.37-2.37H80.6c0-.2,0-.4,0-.61s0-.43,0-.65a10.08,10.08,0,0,1,.07-1.24A3.26,3.26,0,0,1,81,50.7a2,2,0,0,1,.72-.82A2.32,2.32,0,0,1,83,49.57a2.24,2.24,0,0,1,1.28.31,2,2,0,0,1,.71.82,3.49,3.49,0,0,1,.31,1.11,10.06,10.06,0,0,1,.08,1.24v1.26H99.58a2.28,2.28,0,0,1,1.67.7A2.32,2.32,0,0,1,102,56.68Zm0,19A2.41,2.41,0,0,1,99.58,78H87.72v9.48a4.75,4.75,0,0,1-.37,1.86,4.85,4.85,0,0,1-2.52,2.52,4.58,4.58,0,0,1-1.86.37H80.6a2.44,2.44,0,0,1-2-3.65,2.13,2.13,0,0,1,.81-.71,3.65,3.65,0,0,1,1.11-.31,10.19,10.19,0,0,1,1.24-.08H83V78H71.12a2.38,2.38,0,0,1,0-4.75H83a2.83,2.83,0,0,1,.32-1.15,10.69,10.69,0,0,1,.76-1.33c.3-.44.59-.86.89-1.26s.53-.73.7-1H75.86a2.37,2.37,0,0,1,0-4.74H90.09a2.39,2.39,0,0,1,2.37,2.37,2.15,2.15,0,0,1-.41,1.29L88.2,73.28H99.58A2.41,2.41,0,0,1,102,75.66Z"/></svg>