<svg id="图层_1" data-name="图层 1" xmlns="http://www.w3.org/2000/svg" viewBox="0 0 128 128"><defs><style>.cls-1{fill:#fff;}</style></defs><path class="cls-1" d="M29.5,93a7.77,7.77,0,0,1-2.2-.16A3.6,3.6,0,0,1,26,92.22c-.76-.5.27.29-.4-.32-.1-.09-.77-.83-.59-.59a4.49,4.49,0,0,1-1-3.23c0-2.52,0-5,0-7.58V58.58c0-.67,0-1.35,0-2a4.54,4.54,0,0,1,2.23-4,4.38,4.38,0,0,1,2.62-.6A5.51,5.51,0,0,1,32,53.23a7.34,7.34,0,0,1,1.55,2.07A5.31,5.31,0,0,1,34,57.57c.09,6.09,0,12.18,0,18.28v11a19.76,19.76,0,0,1,0,2.31c.06-.49-.14.55-.13.52a2.5,2.5,0,0,1-.3.79,3.68,3.68,0,0,1-1.09,1.41,4.58,4.58,0,0,1-3,1.1c-3.86.09-3.87,6.09,0,6A10.7,10.7,0,0,0,40,88.1c0-2.93,0-5.87,0-8.8,0-7.17,0-14.35,0-21.52A11.67,11.67,0,0,0,29.2,46C23,45.55,18,50.73,18,56.75c0,7.08,0,14.16,0,21.24v9.64a12.74,12.74,0,0,0,.47,4,10.65,10.65,0,0,0,7.4,7.06A15.25,15.25,0,0,0,29.5,99C33.36,99,33.37,93,29.5,93Z"/><path class="cls-1" d="M52.69,99H86.2c3.31,0,6.63.23,9.6-1.6a11.52,11.52,0,0,0,4.9-6.49l1-3.15L105.55,75l3.76-12.27c.26-.86.54-1.71.79-2.58a11.08,11.08,0,0,0-1.41-9.33A11.21,11.21,0,0,0,99.55,46c-1,0-2,0-3,0H82.82c-3,0-5.92,0-8.87,0a5.38,5.38,0,0,1-3.07-1A4.75,4.75,0,0,1,69,41.55c0,.37,0-.59,0-.57v-.13c0-.3,0-.6,0-.91v-3.2c0-1.88,0-3.76,0-5.65a11.27,11.27,0,0,0-4.81-9.17,11,11,0,0,0-11-.79A11.15,11.15,0,0,0,47,30.26c-.57,5.39-1,10.8-1.5,16.2L42.87,75,42,84.82c-.28,3.06-.41,6,1.27,8.78A11.2,11.2,0,0,0,52.69,99c3.87.08,3.87-5.92,0-6a5.28,5.28,0,0,1-3.21-1.16,4.83,4.83,0,0,1-1.78-3.32c0,.28,0-.59,0-.73l0-.53a.49.49,0,0,0,0-.12c0-.22,0-.45.07-.67l.67-7.29,2.46-26.47,2-21.06c0-.46.06-.93.13-1.38a5.12,5.12,0,0,1,4.2-4.22A5.18,5.18,0,0,1,62.58,29a5.24,5.24,0,0,1,.4,2.39c0,.81,0,1.63,0,2.44l0,6.41A11.82,11.82,0,0,0,65.52,48,11.07,11.07,0,0,0,74,52c1,0,1.94,0,2.91,0,7.52,0,15-.11,22.57,0a5,5,0,0,1,4.63,2.85A5.22,5.22,0,0,1,104.2,59c-.9,3-1.82,5.95-2.73,8.92C99.28,75,97.14,82.21,94.9,89.35a5.08,5.08,0,0,1-3.57,3.49A10,10,0,0,1,88.9,93H52.69C48.83,93,48.83,99,52.69,99Z"/></svg>