<svg id="图层_1" data-name="图层 1" xmlns="http://www.w3.org/2000/svg" viewBox="0 0 128 128"><defs><style>.cls-1{fill:#fff;}</style></defs><path class="cls-1" d="M30.67,76.14a9.94,9.94,0,0,1,.69-3.73,11.74,11.74,0,0,1,1.86-3.15A14.67,14.67,0,0,1,36,66.73a20.32,20.32,0,0,1,3.28-1.89c.67-.3,1.31-.62,1.91-1a11.82,11.82,0,0,0,1.77-1.21,35.85,35.85,0,0,0,4.67-4.63,54,54,0,0,0,3.88-5.26q1.78-2.76,3.33-5.68c1-1.94,2-3.9,3-5.86A46.11,46.11,0,0,0,60,35.79q.95-2.79,2.1-5.54A8.18,8.18,0,0,1,64.54,27a5.91,5.91,0,0,1,3.81-1.26,5.24,5.24,0,0,1,2.38.54,8.71,8.71,0,0,1,2,1.39,12.71,12.71,0,0,1,2.18,2.77A13.9,13.9,0,0,1,76.2,33.5a19.24,19.24,0,0,1,.61,3.35A33.82,33.82,0,0,1,77,40.36a51,51,0,0,1-.48,7c-.33,2.31-.73,4.63-1.23,7l2.06-.06,2.07,0a14.24,14.24,0,0,1,5,.9,12.87,12.87,0,0,1,4.2,2.51,12.14,12.14,0,0,1,2.87,3.87,11.66,11.66,0,0,1,1.06,5,12.39,12.39,0,0,1-.23,2.38l-3,16.62A19.34,19.34,0,0,1,87,92.08a19.84,19.84,0,0,1-10.18,8.58A19.24,19.24,0,0,1,70,101.88a18.83,18.83,0,0,1-2.6-.18,24.36,24.36,0,0,1-2.57-.52L40.27,94.44a10.63,10.63,0,0,1-5.13-3.14,11.1,11.1,0,0,1-2.72-5.37l-1.56-7.81A10.84,10.84,0,0,1,30.67,76.14ZM70,97.12a14.07,14.07,0,0,0,5.17-1,15.5,15.5,0,0,0,4.41-2.6,15.22,15.22,0,0,0,3.29-3.92,15,15,0,0,0,1.82-5l3-16.63c0-.24.08-.49.11-.74s0-.5,0-.75a7.15,7.15,0,0,0-.66-3.1,7.26,7.26,0,0,0-1.83-2.38,8.46,8.46,0,0,0-2.64-1.53A9,9,0,0,0,79.58,59c-.54,0-1.07,0-1.59,0h-1c-.52,0-1,0-1.6,0a4.66,4.66,0,0,1-1.87-.37,5,5,0,0,1-1.53-1,4.85,4.85,0,0,1-1-1.5,4.59,4.59,0,0,1-.39-1.88,4.43,4.43,0,0,1,.17-1.25c.11-.41.23-.82.35-1.24a31.17,31.17,0,0,0,1-5.66c.15-1.91.22-3.82.22-5.73,0-.89,0-1.76-.07-2.62a14.09,14.09,0,0,0-.38-2.51A9.34,9.34,0,0,0,70.88,33a8.44,8.44,0,0,0-1.6-2.09,2.31,2.31,0,0,0-.39-.31.89.89,0,0,0-.5-.13,1.52,1.52,0,0,0-1.08.41,3.2,3.2,0,0,0-.71.93,10.66,10.66,0,0,0-.67,1.71c-.17.59-.36,1.18-.55,1.75a81.45,81.45,0,0,1-3.67,8.81q-2.1,4.32-4.48,8.48a54.56,54.56,0,0,1-5,7.29,49.24,49.24,0,0,1-6.14,6.36,13.77,13.77,0,0,1-2.44,1.71c-.85.48-1.74.92-2.66,1.34a16.09,16.09,0,0,0-2,1.16,9.41,9.41,0,0,0-1.79,1.52,7.25,7.25,0,0,0-1.26,1.92,5.31,5.31,0,0,0-.49,2.28,5,5,0,0,0,.11,1L37.07,85a6.12,6.12,0,0,0,1.54,3,6.2,6.2,0,0,0,2.92,1.78L66.05,96.6A10.1,10.1,0,0,0,68,97,16.48,16.48,0,0,0,70,97.12Z"/></svg>