<svg id="图层_1" data-name="图层 1" xmlns="http://www.w3.org/2000/svg" viewBox="0 0 128 128"><defs><style>.cls-1{fill:#fff;}</style></defs><path class="cls-1" d="M55.07,31.38H39c-4.24,0-8.32,1.67-10.56,5.46A12.32,12.32,0,0,0,27,43.38V88a22.51,22.51,0,0,0,.25,4.64c1.09,5.08,6,8.32,11,8.4,1.2,0,2.39,0,3.59,0H80.26c1.61,0,3.23,0,4.84,0A11.66,11.66,0,0,0,95,95.81c1.78-2.76,1.59-5.85,1.59-9V74.59c0-2.89-4.5-2.9-4.5,0,0,5.12,0,10.24,0,15.36a6.48,6.48,0,0,1-6,6.52c-1.12.11-2.28,0-3.4,0H39.57a9,9,0,0,1-5.4-1.24c-3.54-2.43-2.67-7.3-2.67-11V46.59c0-1.44,0-2.88,0-4.32A6.43,6.43,0,0,1,37.06,36a40.72,40.72,0,0,1,6.44-.08H55.07c2.9,0,2.9-4.5,0-4.5Z"/><path class="cls-1" d="M55.47,75.72l14.29-14.3L92.35,38.83l5.25-5.25c2.06-2-1.13-5.24-3.18-3.18L80.13,44.69,57.54,67.28l-5.26,5.25c-2.05,2,1.14,5.24,3.19,3.19Z"/><path class="cls-1" d="M101,58.25v-29A2.28,2.28,0,0,0,98.75,27h-29c-2.9,0-2.9,4.5,0,4.5h29L96.5,29.25v29c0,2.9,4.5,2.9,4.5,0Z"/></svg>