<svg id="图层_1" data-name="图层 1" xmlns="http://www.w3.org/2000/svg" viewBox="0 0 128 128"><defs><style>.cls-1{fill:#fff;}</style></defs><path class="cls-1" d="M94.65,51.31V81H33.35V51.31c0-17.25,13.79-31.37,30.65-31.37h0C80.86,19.94,94.65,34.06,94.65,51.31Z"/><path class="cls-1" d="M98.91,79.6H29.09a5.56,5.56,0,0,0-5.57,5.56h0a5.38,5.38,0,0,0,5.38,5.38H99.1a5.38,5.38,0,0,0,5.38-5.38h0A5.56,5.56,0,0,0,98.91,79.6Z"/><path class="cls-1" d="M74.4,97.66a10.4,10.4,0,0,1-20.8,0C53.6,91.92,74.4,91.92,74.4,97.66Z"/></svg>