<svg id="图层_1" data-name="图层 1" xmlns="http://www.w3.org/2000/svg" xmlns:xlink="http://www.w3.org/1999/xlink" viewBox="0 0 128 128"><defs><style>.cls-1{fill:url(#未命名的渐变_4);}.cls-2{fill:#5f5e5d;}.cls-3{fill:url(#未命名的渐变_10);}</style><linearGradient id="未命名的渐变_4" x1="64" y1="30.97" x2="64" y2="92.27" gradientUnits="userSpaceOnUse"><stop offset="0" stop-color="#7a7a7a"/><stop offset="1" stop-color="#5f5e5d"/></linearGradient><radialGradient id="未命名的渐变_10" cx="64" cy="92.54" r="13.47" gradientUnits="userSpaceOnUse"><stop offset="0" stop-color="#f18d00"/><stop offset="1" stop-color="#f19d00"/></radialGradient></defs><path class="cls-1" d="M94.65,51.31V81H33.35V51.31c0-17.25,13.79-31.37,30.65-31.37h0C80.86,19.94,94.65,34.06,94.65,51.31Z"/><path class="cls-2" d="M98.91,79.6H29.09a5.56,5.56,0,0,0-5.57,5.55h0a5.38,5.38,0,0,0,5.38,5.38H99.1a5.38,5.38,0,0,0,5.38-5.38h0a5.56,5.56,0,0,0-5.56-5.56Z"/><path class="cls-3" d="M74.4,97.66a10.4,10.4,0,0,1-20.8,0C53.6,91.92,74.4,91.92,74.4,97.66Z"/></svg>