<svg id="图层_1" data-name="图层 1" xmlns="http://www.w3.org/2000/svg" xmlns:xlink="http://www.w3.org/1999/xlink" viewBox="0 0 128 128"><defs><style>.cls-1{fill:url(#未命名的渐变_3);}.cls-2{fill:#5f5e5d;}.cls-3{fill:url(#未命名的渐变_7);}</style><linearGradient id="未命名的渐变_3" x1="64" y1="19.91" x2="64" y2="85.07" gradientUnits="userSpaceOnUse"><stop offset="0" stop-color="#7a7a7a"/><stop offset="1" stop-color="#656463"/></linearGradient><radialGradient id="未命名的渐变_7" cx="64" cy="98.49" r="16.79" gradientUnits="userSpaceOnUse"><stop offset="0" stop-color="#f19900"/><stop offset="1" stop-color="#f19d00"/></radialGradient></defs><path class="cls-1" d="M96.58,51.29V82.85H31.42V51.29C31.42,33,46.08,17.94,64,17.94h0C81.92,17.94,96.58,33,96.58,51.29Z"/><path class="cls-2" d="M101.12,81.36H26.88A5.92,5.92,0,0,0,21,87.28h0A5.72,5.72,0,0,0,26.68,93h74.64A5.72,5.72,0,0,0,107,87.28h0A5.92,5.92,0,0,0,101.12,81.36Z"/><path class="cls-3" d="M74.4,99.66a10.4,10.4,0,0,1-20.8,0C53.6,93.92,74.4,93.92,74.4,99.66Z"/></svg>