<svg id="图层_1" data-name="图层 1" xmlns="http://www.w3.org/2000/svg" viewBox="0 0 128 128"><defs><style>.cls-1{fill:#fff;}</style></defs><path class="cls-1" d="M100,64a36.16,36.16,0,0,1-6.69,20.93A34.36,34.36,0,0,1,89.91,89c-.64.67-1.31,1.31-2,1.93S86.28,92.31,86,92.53a37.86,37.86,0,0,1-4.68,3,30.65,30.65,0,0,1-4.71,2.17,36,36,0,1,1-5.5-69,34.93,34.93,0,0,1,10.21,3.74A34.27,34.27,0,0,1,90,39.13a36.1,36.1,0,0,1,9.58,19.44c0,.23.07.45.11.68,0-.35,0,.21,0,.23.05.45.1.91.13,1.37.09,1,.13,2.1.13,3.15,0,3.86,6,3.87,6,0A42,42,0,0,0,31.77,37.09a42.43,42.43,0,0,0-9.64,23.76,42,42,0,0,0,5.94,24.91,42,42,0,0,0,77.38-15.08A45.26,45.26,0,0,0,106,64C106,60.14,100,60.13,100,64Z"/><path class="cls-1" d="M74,64a10.16,10.16,0,0,1-6.44,9.36A10,10,0,1,1,74,64c0,3.86,6,3.87,6,0A16.27,16.27,0,0,0,69.32,48.91a16,16,0,1,0-2.11,30.76C74.64,78.28,79.9,71.42,80,64,80.05,60.14,74.05,60.14,74,64Z"/></svg>