<svg id="图层_1" data-name="图层 1" xmlns="http://www.w3.org/2000/svg" viewBox="0 0 128 128"><defs><style>.cls-1{fill:#fff;}</style></defs><path class="cls-1" d="M34.59,63.8a5.48,5.48,0,0,1,.48-2.28,6.11,6.11,0,0,1,3.12-3.13,5.77,5.77,0,0,1,4.56,0,6.08,6.08,0,0,1,3.13,3.13,5.77,5.77,0,0,1,0,4.56,6.11,6.11,0,0,1-3.13,3.12,5.66,5.66,0,0,1-4.56,0,6.14,6.14,0,0,1-3.12-3.12A5.48,5.48,0,0,1,34.59,63.8Zm23.53,0a5.48,5.48,0,0,1,.48-2.28,6.17,6.17,0,0,1,1.26-1.86,6.39,6.39,0,0,1,1.86-1.27,5.77,5.77,0,0,1,4.56,0,6.21,6.21,0,0,1,1.85,1.27,6,6,0,0,1,1.27,1.86,5.66,5.66,0,0,1,0,4.56,5.86,5.86,0,0,1-1.27,1.85,6,6,0,0,1-1.85,1.27,5.65,5.65,0,0,1-4.56,0,6.2,6.2,0,0,1-1.86-1.27,6,6,0,0,1-1.26-1.85A5.48,5.48,0,0,1,58.12,63.8Zm23.53,0a5.48,5.48,0,0,1,.47-2.28,6.08,6.08,0,0,1,3.13-3.13,5.77,5.77,0,0,1,4.56,0,6.11,6.11,0,0,1,3.12,3.13,5.66,5.66,0,0,1,0,4.56,6.14,6.14,0,0,1-3.12,3.12,5.65,5.65,0,0,1-4.56,0,6.11,6.11,0,0,1-3.13-3.12A5.48,5.48,0,0,1,81.65,63.8Z"/></svg>