<svg id="图层_1" data-name="图层 1" xmlns="http://www.w3.org/2000/svg" xmlns:xlink="http://www.w3.org/1999/xlink" viewBox="0 0 512 512"><defs><style>.cls-1{fill:url(#未命名的渐变_2);}.cls-2{fill:#fff;}</style><linearGradient id="未命名的渐变_2" x1="287.23" y1="319.53" x2="490.68" y2="456.08" gradientUnits="userSpaceOnUse"><stop offset="0" stop-color="#56b60e"/><stop offset="1" stop-color="#107c10"/></linearGradient></defs><circle class="cls-1" cx="388.5" cy="387.5" r="122.5"/><path class="cls-2" d="M368.26,413.35C388.4,392.2,406.68,373,425,353.78c2.29-2.4,4.71-4.67,7.06-7,4.15-4.14,8.76-6.67,13.82-1.82s2.83,9.55-1.38,13.74c-4.7,4.68-9.46,9.3-14.17,14q-26.54,26.25-53.08,52.49c-8.1,8-11.06,7.93-19.09.26-8.63-8.25-17.28-16.49-25.86-24.79-4.16-4-6.93-8.87-2.3-13.86,4.92-5.3,10.34-3.32,14.74,1.25C351.86,395.4,358.72,403.05,368.26,413.35Z"/></svg>