<svg id="图层_1" data-name="图层 1" xmlns="http://www.w3.org/2000/svg" viewBox="0 0 128 128"><defs><style>.cls-1{fill:#fff;}</style></defs><path class="cls-1" d="M16,36.5V62.75c0,9.53-.13,19.07,0,28.6a11.19,11.19,0,0,0,5.64,9.76,12.41,12.41,0,0,0,6.09,1.39h47c8.62,0,17.24,0,25.87,0A11.24,11.24,0,0,0,112,91v-13c0-9.89.17-19.8,0-29.68a11.14,11.14,0,0,0-8.18-10.65,19.06,19.06,0,0,0-4.94-.37H65.44c-1.06,0-2.12,0-3.17,0-2.73-.09-4.59-2.79-6.39-4.71-2.28-2.43-4.35-5.1-7.54-6.33-2.35-.9-5-.69-7.43-.69H31.47a37.64,37.64,0,0,0-6.63.22A11.11,11.11,0,0,0,16,36.5c-.08,3.86,5.92,3.86,6,0a5.08,5.08,0,0,1,5.22-5c2.27,0,4.55,0,6.82,0h8.62c2.22,0,4,0,5.64,1.71s3.55,3.78,5.32,5.67c2.44,2.59,5.25,4.29,8.92,4.35s7.54,0,11.31,0H99a11.74,11.74,0,0,1,3.7.29,5.1,5.1,0,0,1,3.3,5c0,1.4,0,2.8,0,4.19V86.84c0,1.43,0,2.86,0,4.3a5.17,5.17,0,0,1-3.14,5,7.25,7.25,0,0,1-2.92.34H27.68a5.47,5.47,0,0,1-3.74-1A5.17,5.17,0,0,1,22,90.86V36.5C22,32.64,16,32.63,16,36.5Z"/></svg>