<svg id="图层_1" data-name="图层 1" xmlns="http://www.w3.org/2000/svg" viewBox="0 0 128 128"><defs><style>.cls-1{fill:#fff;}</style></defs><path class="cls-1" d="M43.63,98.89A13.61,13.61,0,0,1,38,97.69a15.44,15.44,0,0,1-7.92-7.91,13.76,13.76,0,0,1-1.19-5.62V48.43a13.76,13.76,0,0,1,1.19-5.62A15.51,15.51,0,0,1,38,34.89a13.76,13.76,0,0,1,5.62-1.19H56.48a2.51,2.51,0,0,1,0,5H43.75a8.89,8.89,0,0,0-3.74.81,10.37,10.37,0,0,0-5.29,5.28,9,9,0,0,0-.81,3.75V84a9,9,0,0,0,.81,3.74,10.33,10.33,0,0,0,2.15,3.13A10.59,10.59,0,0,0,40,93.07a9,9,0,0,0,3.74.8H79.24a9,9,0,0,0,3.82-.82,10.29,10.29,0,0,0,3.11-2.19,10.45,10.45,0,0,0,2.12-3.2,9.6,9.6,0,0,0,.78-3.82V71.31a2.51,2.51,0,0,1,5,0V84.16a13.61,13.61,0,0,1-1.2,5.62A15.37,15.37,0,0,1,85,97.69a13.61,13.61,0,0,1-5.62,1.2ZM59,66.29a2.39,2.39,0,0,1,.74-1.76L90.56,33.7h-24a2.51,2.51,0,0,1,0-5H96.59a2.54,2.54,0,0,1,2.51,2.51V61.28A2.49,2.49,0,0,1,94.83,63a2.39,2.39,0,0,1-.74-1.76v-24L63.26,68.05a3.32,3.32,0,0,1-.81.55,2.19,2.19,0,0,1-1,.2,2.4,2.4,0,0,1-1.76-.75A2.37,2.37,0,0,1,59,66.29Z"/></svg>