<svg id="图层_1" data-name="图层 1" xmlns="http://www.w3.org/2000/svg" viewBox="0 0 128 128"><defs><style>.cls-1{fill:#fff;}</style></defs><path class="cls-1" d="M91.61,30.44c.21-.12.44-.22.66-.34-.64.33-.11.06.26-.05s1.16-.17.32-.12c.32,0,1.2.08.46-.09l.5.13c.44.11-.71-.23,0,0-.32-.11-.36-.26-.1-.06.48.39-.11-.27,0,.07s-.12-.71.07.19c0,.21.09.43.14.64-.17-.65,0-.31,0-.07s0,.29,0,.43c0,.6.18-.81.05-.28-.09.36-.14.72-.24,1.07a21.14,21.14,0,0,1-.84,2.43c-.3.76.12-.25,0,.08s-.22.5-.33.75c-.23.51-.47,1-.72,1.52C91.19,37.85,90.61,39,90,40c-1.41,2.58-2.92,5.1-4.47,7.59-3.47,5.56-7.16,11-11,16.32Q71.85,67.79,69,71.58L66.44,75l-.65.84-.16.21L64.42,77.6c-1.38,1.74-2.77,3.47-4.25,5.12a18.12,18.12,0,0,1-1.35,1.42c-.36.34-.76.51.1,0l-.16.09a3,3,0,0,1,3.43.49l.88,2.13c-.28-2.42-2.54-4.27-4.13-5.91a13,13,0,0,0-5.17-3.31,33,33,0,0,0-3.42-1l2.2,2.9c0-.3.05-.6.06-.89,0-.59-.18.75,0,.17,0-.16.06-.33.09-.49A16.64,16.64,0,0,1,53.31,76c.13-.38.27-.75.41-1.13l.24-.58c-.31.75,0,.06,0-.08q.6-1.32,1.26-2.61A91.44,91.44,0,0,1,62.68,60c2.81-3.82,6.05-7.77,9.45-11.59,3.25-3.65,6.64-7.19,10.21-10.54,1.66-1.56,3.37-3.09,5.15-4.53l.54-.42c.65-.53-.14.09.26-.21s.77-.58,1.17-.86c.69-.5,1.41-1,2.15-1.43,3.3-2,.28-7.18-3-5.18a60.81,60.81,0,0,0-9.2,7.2c-3.7,3.36-7.19,7-10.55,10.67C62,50.66,55.42,58.75,50.55,67.68c-1.95,3.57-3.92,7.61-4,11.77a3.06,3.06,0,0,0,2.21,2.89c.57.14,1.14.31,1.71.48s1.05.33,1.57.52l.81.31c-.47-.2.13.07.27.14s.4.24.61.35c-.57-.29-.14-.1.19.23.57.57,1.13,1.15,1.69,1.73.38.41.76.82,1.13,1.24.13.15.67.63.69.82,0-.09-.45-.68-.2-.25a2,2,0,0,1,.13.18c.17.38,0,.28-.19-.5.08.28-.06-.39-.1-.77A3.24,3.24,0,0,0,58,88.94a3,3,0,0,0,1.38.79,3.75,3.75,0,0,0,3.54-1.17,34.14,34.14,0,0,0,3.6-4c2.09-2.54,4.1-5.14,6.08-7.75q7.32-9.66,14-19.75a142,142,0,0,0,10.9-18.5c1.11-2.4,2.39-5.11,2.38-7.82s-1.68-5.82-4.56-6.59a9.09,9.09,0,0,0-6.73,1.11C85.24,27.2,88.26,32.39,91.61,30.44Z"/><path class="cls-1" d="M49.55,76.45a15.46,15.46,0,0,0-9.2,2.77,11.47,11.47,0,0,0-4.6,7.36,21.06,21.06,0,0,0-.22,4.27c0,.36,0,.72,0,1.08,0,.07-.07.38,0,.44-.15-.21.14-.82,0-.47s-.2.21.06-.05.17-.35.06-.16-.11,0,0,0c-.08,0,.35-.29.09-.12-.09,0-.15.2-.24.24-.49.19.58-.37-.09.07l-.7.45c-1.7,1.06-3.46,2-5.2,3a3,3,0,0,0,0,5.18A20.76,20.76,0,0,0,37,103.57a19.75,19.75,0,0,0,16.32-3.47,33.62,33.62,0,0,0,9.31-11.77,3.06,3.06,0,0,0-1.08-4.1,3,3,0,0,0-4.1,1.07,29.51,29.51,0,0,1-6.87,9.35c-.15.13-.88.72-.52.44q-.44.33-.9.63a16.23,16.23,0,0,1-1.8,1c-.29.15-.59.29-.89.42.63-.27-.21.07-.39.13a15.14,15.14,0,0,1-1.86.53l-.86.16c-.42.08.58-.06.16,0l-.42,0a14.38,14.38,0,0,1-1.74.07c-.52,0-1,0-1.56-.09s0,0,0,0a7.21,7.21,0,0,0-.81-.14,19.49,19.49,0,0,1-2.69-.74l-.57-.21c-.11,0-.81-.31-.25-.09s0,0-.14-.07l-.57-.26a15.28,15.28,0,0,1-2.12-1.21v5.18C35,99.1,38,97.88,40,95.88c1.44-1.46,1.6-3.27,1.54-5.21,0-.52,0-1,0-1.56a5.14,5.14,0,0,1,.2-1.78c.08-.3.18-.6.27-.91s0,.08-.06.12c.06-.15.14-.3.21-.45s.29-.48.43-.73c.33-.58-.22.16.23-.31.18-.19.35-.38.54-.56s.71-.58.37-.32.31-.21.39-.26c.24-.14.48-.28.73-.41.1-.06.81-.39.37-.2s.29-.1.38-.14c.41-.14.83-.27,1.25-.37s.92-.19,1.38-.28c.65-.12-.71,0-.1,0l.49,0c.32,0,.65,0,1,0,3.87.09,3.87-5.91,0-6Z"/></svg>