<svg id="图层_1" data-name="图层 1" xmlns="http://www.w3.org/2000/svg" viewBox="0 0 128 128"><defs><style>.cls-1{fill:#fff;}</style></defs><path class="cls-1" d="M37.73,96.9A10.68,10.68,0,0,1,33.3,96a12.13,12.13,0,0,1-3.68-2.51,12,12,0,0,1-2.51-3.68,10.69,10.69,0,0,1-.95-4.43V42.26a10.74,10.74,0,0,1,.95-4.44,11.91,11.91,0,0,1,2.51-3.67,12.16,12.16,0,0,1,3.68-2.52,10.68,10.68,0,0,1,4.43-.94H52.18a11.58,11.58,0,0,1,5.3,1.24,11.83,11.83,0,0,1,4.16,3.49l3.54,4.73H90a11.27,11.27,0,0,1,4,.72,12.27,12.27,0,0,1,3.47,2,11.88,11.88,0,0,1,2.65,3,11.23,11.23,0,0,1,1.49,3.77H96.7a6.71,6.71,0,0,0-1-1.94,7.07,7.07,0,0,0-3.47-2.46A7.1,7.1,0,0,0,90,44.88H64.7c-.89.59-1.73,1.17-2.53,1.74a21.77,21.77,0,0,1-2.47,1.51,15.15,15.15,0,0,1-2.65,1.07,10.62,10.62,0,0,1-3,.41H30.89V85.08a6.84,6.84,0,0,0,.56,2.73,7.13,7.13,0,0,0,3.8,3.81,6.91,6.91,0,0,0,2.74.55H58.75A20.44,20.44,0,0,0,61,96.9ZM54,44.88a6.6,6.6,0,0,0,1.87-.26,8.2,8.2,0,0,0,1.64-.68c.52-.29,1-.6,1.54-.94l1.53-1.08c-.59-.78-1.16-1.57-1.7-2.34a15.12,15.12,0,0,0-1.75-2.09A8.07,8.07,0,0,0,55,36a6.51,6.51,0,0,0-2.82-.57H38a6.91,6.91,0,0,0-2.74.55,7.22,7.22,0,0,0-3.8,3.81,6.84,6.84,0,0,0-.56,2.73v2.37ZM71.65,78H94.11a7.3,7.3,0,0,1,3,.62,7.82,7.82,0,0,1,2.44,1.66,7.93,7.93,0,0,1,1.66,2.44,7.21,7.21,0,0,1,.61,3v1.77a10.85,10.85,0,0,1-.81,4.23,12.55,12.55,0,0,1-2.22,3.52A17.34,17.34,0,0,1,95.54,98a20.66,20.66,0,0,1-3.9,2,23.73,23.73,0,0,1-4.21,1.22,22.29,22.29,0,0,1-4.14.4h-.82a21.5,21.5,0,0,1-4-.4,24.86,24.86,0,0,1-4.18-1.2,22.43,22.43,0,0,1-3.91-2,16,16,0,0,1-3.29-2.74,12.47,12.47,0,0,1-2.26-3.45A10.25,10.25,0,0,1,64,87.74V85.67a7.37,7.37,0,0,1,.61-3,7.93,7.93,0,0,1,1.66-2.44,7.82,7.82,0,0,1,2.44-1.66A7.3,7.3,0,0,1,71.65,78Zm-.59-16.55v-.26a10.69,10.69,0,0,1,1-4.5A12,12,0,0,1,74.6,53a12.35,12.35,0,0,1,3.77-2.48,11.53,11.53,0,0,1,4.51-.9,11.65,11.65,0,0,1,4.62.92,11.86,11.86,0,0,1,6.28,6.28,11.94,11.94,0,0,1,0,9.24,12,12,0,0,1-2.53,3.75,11.82,11.82,0,0,1-3.75,2.53,11.94,11.94,0,0,1-9.24,0,11.82,11.82,0,0,1-3.75-2.53A12,12,0,0,1,72,66.05,11.65,11.65,0,0,1,71.06,61.43Z"/></svg>