<svg id="图层_1" data-name="图层 1" xmlns="http://www.w3.org/2000/svg" viewBox="0 0 128 128"><defs><style>.cls-1{fill:#fff;}</style></defs><path class="cls-1" d="M101.64,32.89a7.83,7.83,0,0,1-.42,2.48,8.76,8.76,0,0,1-1.13,2.27L93.8,46.8A227.61,227.61,0,0,1,77.71,67.64,230.5,230.5,0,0,1,59.29,86.5a13.79,13.79,0,0,1-.92,4.91,10.69,10.69,0,0,1-2.87,4.07,18.28,18.28,0,0,1-3.79,2.66,27.6,27.6,0,0,1-9,3,30.71,30.71,0,0,1-4.62.35c-.64,0-1.41,0-2.32-.09s-1.84-.16-2.79-.29-1.88-.29-2.76-.46A13.79,13.79,0,0,1,28,100a2.82,2.82,0,0,1-1.22-.85,2.17,2.17,0,0,1-.44-1.4,2.28,2.28,0,0,1,.85-1.8l2.94-2.37a26.34,26.34,0,0,0,2.8-2.56,6.21,6.21,0,0,0,1.56-2.63,18.47,18.47,0,0,0,.61-3c0-.2,0-.36,0-.48v-.33a0,0,0,0,1,0,0s0-.13,0-.24,0-.3.09-.57A11.65,11.65,0,0,1,36.26,80a11.28,11.28,0,0,1,2.24-3.19,10.78,10.78,0,0,1,2.93-2.08,16.33,16.33,0,0,1,3.4-1.19A220.6,220.6,0,0,1,62.42,52.69a226.31,226.31,0,0,1,20-18.58l7.22-5.93a8.84,8.84,0,0,1,2.41-1.45,7.08,7.08,0,0,1,2.74-.54,6.56,6.56,0,0,1,2.61.54,7.21,7.21,0,0,1,2.19,1.43,6.91,6.91,0,0,1,1.49,2.14A6.21,6.21,0,0,1,101.64,32.89ZM54.58,86.43a12.09,12.09,0,0,0-.24-2.38,9.37,9.37,0,0,0-.75-2.24,7.39,7.39,0,0,0-1.35-1.9,5.8,5.8,0,0,0-2-1.32q-.48-.18-1.23-.42a4.34,4.34,0,0,0-1.27-.24,9.18,9.18,0,0,0-3.18.59,7.49,7.49,0,0,0-2.74,1.65,5.31,5.31,0,0,0-1.55,2.56,17.84,17.84,0,0,0-.44,3,14.18,14.18,0,0,1-.37,2.43,19.06,19.06,0,0,1-.7,2.35,15.15,15.15,0,0,1-.86,1.84,9.47,9.47,0,0,1-1,1.49,14.62,14.62,0,0,1-1.29,1.33c-.46.43-1,.86-1.51,1.3.67.1,1.33.18,2,.24s1.35.09,2,.09a25.9,25.9,0,0,0,3.37-.23,25.63,25.63,0,0,0,3.66-.76,24.28,24.28,0,0,0,3.55-1.3,12.69,12.69,0,0,0,3-2,9.33,9.33,0,0,0,2.12-2.67A7.25,7.25,0,0,0,54.58,86.43Zm42.35-53.5a1.86,1.86,0,0,0-.66-1.44,2.17,2.17,0,0,0-1.47-.59,2.52,2.52,0,0,0-1.14.26,4.8,4.8,0,0,0-1,.66l-7.25,5.93A212.35,212.35,0,0,0,67,54.71a222.19,222.19,0,0,0-16.35,19,11.54,11.54,0,0,1,4.71,2.7,12.37,12.37,0,0,1,3,4.54A216.92,216.92,0,0,0,75.17,63.45a215.35,215.35,0,0,0,14.77-19.3L96.16,35a6.55,6.55,0,0,0,.53-1A2.73,2.73,0,0,0,96.93,32.93Z"/></svg>