<svg id="图层_1" data-name="图层 1" xmlns="http://www.w3.org/2000/svg" viewBox="0 0 128 128"><defs><style>.cls-1{fill:#fff;}</style></defs><path class="cls-1" d="M83.34,30.47a13.09,13.09,0,0,1,5.34,1.13,14.79,14.79,0,0,1,4.46,3,14.6,14.6,0,0,1,3,4.47,12.86,12.86,0,0,1,1.14,5.33V83.14a12.86,12.86,0,0,1-1.14,5.33A14.61,14.61,0,0,1,88.68,96a12.93,12.93,0,0,1-5.34,1.13H44.66A12.93,12.93,0,0,1,39.32,96a14.61,14.61,0,0,1-7.51-7.52,12.86,12.86,0,0,1-1.14-5.33V44.45a12.86,12.86,0,0,1,1.14-5.33,14.6,14.6,0,0,1,3.05-4.47,14.79,14.79,0,0,1,4.46-3,13.09,13.09,0,0,1,5.34-1.13ZM36.77,87.67,58.12,66.32a8.33,8.33,0,0,1,11.76,0L91.23,87.67a8.58,8.58,0,0,0,1-2.3,9.3,9.3,0,0,0,.34-2.53V44.57A8.57,8.57,0,0,0,91.8,41a10.07,10.07,0,0,0-2-3,10,10,0,0,0-3-2,8.52,8.52,0,0,0-3.55-.76H44.77a8.52,8.52,0,0,0-3.55.76,9.91,9.91,0,0,0-5,5,8.57,8.57,0,0,0-.77,3.56V82.84a9.3,9.3,0,0,0,.34,2.53A8.58,8.58,0,0,0,36.77,87.67ZM83,92.36A9.05,9.05,0,0,0,87.88,91L66.53,69.67a3.6,3.6,0,0,0-5.06,0L40.12,91a8.81,8.81,0,0,0,2.31,1,9.65,9.65,0,0,0,2.53.33ZM68.76,51.89a7,7,0,0,1,.56-2.75,7.18,7.18,0,0,1,3.83-3.83,7.06,7.06,0,0,1,5.51,0,7.27,7.27,0,0,1,3.83,3.83,7.18,7.18,0,0,1,0,5.51,7.36,7.36,0,0,1-3.83,3.83,7.18,7.18,0,0,1-5.51,0,7.27,7.27,0,0,1-3.83-3.83A7,7,0,0,1,68.76,51.89Zm4.76,0a2.43,2.43,0,1,0,.71-1.67A2.3,2.3,0,0,0,73.52,51.89Z"/></svg>