<svg id="图层_1" data-name="图层 1" xmlns="http://www.w3.org/2000/svg" viewBox="0 0 128 128"><defs><style>.cls-1{fill:#fff;}</style></defs><path class="cls-1" d="M100.82,57.44a6.92,6.92,0,0,1-1.19,3.94,6.82,6.82,0,0,1-3.2,2.6l-19.89,8.3a2.24,2.24,0,0,0-.86.57,2.19,2.19,0,0,0-.52.91L68.65,95.41a2.4,2.4,0,0,1-.84,1.23,2.24,2.24,0,0,1-1.43.48,2.28,2.28,0,0,1-1.67-.7l-15-15L29.26,101.88H25.91V98.5L46.37,78.08l-15-15a2.33,2.33,0,0,1-.71-1.71,2.35,2.35,0,0,1,1.49-2.16l22.06-8.81a2.3,2.3,0,0,0,1.26-1.23L63.74,31a6.85,6.85,0,0,1,2.64-3.07,7.1,7.1,0,0,1,3.91-1.13,7,7,0,0,1,2.73.55,7.24,7.24,0,0,1,2.29,1.53L98.74,52.34a7,7,0,0,1,1.54,2.34A7.33,7.33,0,0,1,100.82,57.44ZM70.29,31.55a2.34,2.34,0,0,0-1.32.37,2.31,2.31,0,0,0-.88,1L59.83,51.15a6.73,6.73,0,0,1-1.56,2.21A7.41,7.41,0,0,1,56,54.83L37.29,62.27l27.94,28,5.35-17.82a6.82,6.82,0,0,1,1.55-2.71,7.57,7.57,0,0,1,2.54-1.82l19.94-8.33a2.41,2.41,0,0,0,1.06-.88,2.28,2.28,0,0,0,.39-1.32,2.24,2.24,0,0,0-.67-1.67L71.92,32.25A2.23,2.23,0,0,0,70.29,31.55Z"/></svg>