<svg id="图层_1" data-name="图层 1" xmlns="http://www.w3.org/2000/svg" viewBox="0 0 128 128"><defs><style>.cls-1{fill:#fff;}</style></defs><path class="cls-1" d="M42.61,97.35a7.06,7.06,0,0,1-2.79-.56,7.3,7.3,0,0,1-2.29-1.53,7.07,7.07,0,0,1-2.1-5.06V37.39a7.14,7.14,0,0,1,4.36-6.59,7,7,0,0,1,2.78-.55,7.25,7.25,0,0,1,1.79.22,6.42,6.42,0,0,1,1.67.67L93.42,57.55a6.94,6.94,0,0,1,2.68,2.64,7.29,7.29,0,0,1,0,7.23A6.75,6.75,0,0,1,93.42,70L46.07,96.45a6.56,6.56,0,0,1-1.67.67A7.32,7.32,0,0,1,42.61,97.35ZM92.31,63.8A2.38,2.38,0,0,0,92,62.59a2.22,2.22,0,0,0-.89-.88L43.73,35.3A2.38,2.38,0,0,0,42.57,35a2.41,2.41,0,0,0-2.38,2.38V90.2a2.41,2.41,0,0,0,2.38,2.38,2.27,2.27,0,0,0,1.16-.29L91.08,65.88A2.22,2.22,0,0,0,92,65,2.37,2.37,0,0,0,92.31,63.8Z"/></svg>