<svg id="图层_1" data-name="图层 1" xmlns="http://www.w3.org/2000/svg" xmlns:xlink="http://www.w3.org/1999/xlink" viewBox="0 0 128 128"><defs><style>.cls-1{fill:url(#未命名的渐变_4);}</style><radialGradient id="未命名的渐变_4" cx="38.72" cy="41.95" r="69.88" gradientUnits="userSpaceOnUse"><stop offset="0" stop-color="#7b50c6"/><stop offset="1" stop-color="#3f4299"/></radialGradient></defs><path class="cls-1" d="M36,28H53.89S54,18,64,18,74.33,28,74.33,28H92a8,8,0,0,1,8,8V54S89,54,89,64s11,10,11,10V92a8,8,0,0,1-8,8H74.33S74,110,64,110s-10.11-10-10.11-10H36a8,8,0,0,1-8-8V74S18,74,18,64,28,54,28,54V36A8,8,0,0,1,36,28Z"/></svg>