<svg id="图层_1" data-name="图层 1" xmlns="http://www.w3.org/2000/svg" viewBox="0 0 128 128"><defs><style>.cls-1{fill:#2b2b2b;}</style></defs><path class="cls-1" d="M86.18,60.91a29.31,29.31,0,0,1-8.46,12.88,24.85,24.85,0,0,1-5.67,3.68,19.9,19.9,0,0,1-2.83,1.06c-.55.16-1.11.31-1.67.43l-.76.15-.62.1c.29,0,.24,0-.12,0a21.62,21.62,0,0,1-3.41.09l-.62,0s-1-.12-.45,0a19.65,19.65,0,0,1-2-.4A17.15,17.15,0,0,1,53.42,76,21.38,21.38,0,0,1,46,65.07a29.87,29.87,0,0,1,7.36-29,23,23,0,0,1,11.8-6.59,12.28,12.28,0,0,1,2.9-.34c.52,0,1,0,1.55,0,.31,0,.63,0,.94.06l.62.06c-.29,0-.24,0,.13,0a17.17,17.17,0,0,1,6.22,2.17A20.57,20.57,0,0,1,86.56,43.4a28.94,28.94,0,0,1-.38,17.51A3,3,0,1,0,92,62.5c3.68-11.44,1.7-25.71-7.95-33.73a23.89,23.89,0,0,0-16-5.62,27.33,27.33,0,0,0-15.56,5.76A35.89,35.89,0,0,0,39.31,63c2,11.74,11.08,21.67,23.33,22.35C76.5,86.08,87.83,74.9,92,62.5a3,3,0,1,0-5.78-1.59Z"/><path class="cls-1" d="M37.26,104.74a39.59,39.59,0,0,0,5.11.09c3.25-.13,6.68-.52,9.6-2a7.18,7.18,0,0,0,3.57-8.88c-1.16-3.46-3.6-6.14-6-8.79-.4-.44.37.61.08.11-.09-.17-.22-.32-.32-.49s-.13-.26-.2-.36c-.29-.38.27.71.1.24a2.7,2.7,0,0,0-.09-.36c.24.1,0,.9.09.2-.08.94-.09.59,0,.31.14-.5-.32.71-.07.22.11-.24.45-.5-.11.09.17-.18.32-.37.5-.54l.47-.41c-.54.46,0,0,.17-.11a29.37,29.37,0,0,1,4.15-2.29,3,3,0,0,0,1.07-4.11,3.06,3.06,0,0,0-4.1-1.07c-3.55,1.69-8.89,4.4-8,9.19a8.77,8.77,0,0,0,2.2,3.88c.43.51.89,1,1.34,1.49.27.29.53.59.79.9l.4.47c.11.14.49.68,0,.06a17,17,0,0,1,1.3,2.06c.11.21.2.41.3.63-.31-.69,0,0,0,.16s.41,1,.32,1.19c.13-.31,0-.64,0-.12,0,0,0,.47,0,.47s.14-.82,0-.28c0,0-.06.34-.1.35s.33-.75.06-.2c0,0-.17.35-.23.36s.59-.58.15-.22a3.15,3.15,0,0,0-.37.36c-.36.4.61-.36.12-.1-.14.07-.27.17-.4.25s-.49.24-.74.37c.86-.46-.15,0-.42.14s-.7.21-1,.3c-.68.17-1.37.28-2.06.39,1-.16-.3,0-.54.06l-1.13.08a39.16,39.16,0,0,1-6,0,3,3,0,0,0-3,3,3.07,3.07,0,0,0,3,3Z"/></svg>