<svg id="图层_1" data-name="图层 1" xmlns="http://www.w3.org/2000/svg" viewBox="0 0 128 128"><defs><style>.cls-1{fill:#fff;}</style></defs><path class="cls-1" d="M67.27,97.07A34.38,34.38,0,0,1,35,74.74a33.92,33.92,0,0,1-2.16-12.07c0-2.08-2.63-4-4.52-2.59l-5.86,4.4a3.09,3.09,0,0,0-1.08,4.1c.75,1.28,2.8,2,4.1,1.08l5.87-4.4-4.51-2.59a40.82,40.82,0,0,0,26.58,38,40.2,40.2,0,0,0,13.82,2.44c3.86,0,3.86-6,0-6Z"/><path class="cls-1" d="M38,63l-5.77-2.57-.83-.36a2.25,2.25,0,0,0-1.11-.36,2.33,2.33,0,0,0-1.2.05,3.06,3.06,0,0,0-1.79,1.38A3,3,0,0,0,27,63.46a2.92,2.92,0,0,0,1.38,1.8l5.78,2.56.82.37a2.28,2.28,0,0,0,1.12.36,2.19,2.19,0,0,0,1.19-.06,3,3,0,0,0,2.1-3.69A2.93,2.93,0,0,0,38,63Z"/><path class="cls-1" d="M59.73,30a34.51,34.51,0,0,1,20,6.34A34.93,34.93,0,0,1,92,52.33,33.92,33.92,0,0,1,94.13,64.4c0,2.07,2.63,4,4.52,2.59l5.86-4.4a3.09,3.09,0,0,0,1.08-4.1c-.75-1.28-2.8-2.06-4.1-1.08l-5.87,4.4,4.51,2.59A40.38,40.38,0,0,0,59.73,24c-3.86,0-3.86,6,0,6Z"/><path class="cls-1" d="M89,64.06l5.77,2.56.83.37a3.28,3.28,0,0,0,2.31.3A3,3,0,0,0,100,63.6a2.93,2.93,0,0,0-1.38-1.79l-5.78-2.57-.82-.36a3.37,3.37,0,0,0-2.31-.31A3.11,3.11,0,0,0,87.94,60a3.06,3.06,0,0,0-.3,2.31A2.92,2.92,0,0,0,89,64.06Z"/></svg>