<svg id="图层_1" data-name="图层 1" xmlns="http://www.w3.org/2000/svg" viewBox="0 0 128 128"><defs><style>.cls-1{fill:#fff;}</style></defs><path class="cls-1" d="M102.09,63.8A38,38,0,0,1,96.9,83,38.4,38.4,0,0,1,83.25,96.7a38.85,38.85,0,0,1-9.1,3.83,38.83,38.83,0,0,1-20.3,0,39.18,39.18,0,0,1-9.12-3.83A38,38,0,0,1,27.27,74a38.18,38.18,0,0,1,3.83-29.4A37.94,37.94,0,0,1,64,25.71a37.36,37.36,0,0,1,8.07.87,39,39,0,0,1,7.59,2.51,36.4,36.4,0,0,1,6.9,4.06,41.35,41.35,0,0,1,6,5.46V28.09a2.38,2.38,0,0,1,4.76,0v4.5l0,8.93V46a10.19,10.19,0,0,1-.07,1.24A3.39,3.39,0,0,1,97,48.38a2.08,2.08,0,0,1-2,1.13h-19a2.28,2.28,0,0,1-1.67-.7,2.39,2.39,0,0,1,1.67-4.06H91.34a33,33,0,0,0-5.38-6,33.84,33.84,0,0,0-6.56-4.48A34.29,34.29,0,0,0,72,31.45a33.25,33.25,0,0,0-16.83.21,33.23,33.23,0,0,0-8,3.36,33.75,33.75,0,0,0-6.73,5.21A33.3,33.3,0,0,0,35.23,47a33.84,33.84,0,0,0-3.37,8,33.69,33.69,0,0,0,0,17.75,34,34,0,0,0,3.35,8,33.26,33.26,0,0,0,5.21,6.75,32.67,32.67,0,0,0,6.75,5.2,33.61,33.61,0,0,0,8,3.35A32.52,32.52,0,0,0,64,97.12,33.26,33.26,0,0,0,72.72,96a32.91,32.91,0,0,0,14.73-8.5,34.39,34.39,0,0,0,5.38-7,32.59,32.59,0,0,0,3.4-8.07,33.64,33.64,0,0,0,1.1-8.66,2.38,2.38,0,0,1,4.76,0Z"/></svg>