<svg id="图层_1" data-name="图层 1" xmlns="http://www.w3.org/2000/svg" viewBox="0 0 128 128"><defs><style>.cls-1{fill:#fff;}</style></defs><path class="cls-1" d="M25.91,49.51A13.82,13.82,0,0,1,27,44a14.36,14.36,0,0,1,7.6-7.62,13.81,13.81,0,0,1,5.56-1.12H68.76V40H40.19a9.4,9.4,0,0,0-3.7.74,9.71,9.71,0,0,0-3,2.05,9.52,9.52,0,0,0-2,3,9.2,9.2,0,0,0-.75,3.7V78.08a9.2,9.2,0,0,0,.75,3.7,9.52,9.52,0,0,0,2,3,9.71,9.71,0,0,0,3,2,9.4,9.4,0,0,0,3.7.74H68.76v4.76H40.19a14,14,0,0,1-5.56-1.11,14.58,14.58,0,0,1-4.53-3.07A14.28,14.28,0,0,1,27,83.64a13.78,13.78,0,0,1-1.12-5.56Zm28.34-3.38,13.1,28.56a2.39,2.39,0,0,1,.22,1,3.43,3.43,0,0,1-.24,1.08,2,2,0,0,1-1.14,1.08,2.47,2.47,0,0,1-1,.22,3.43,3.43,0,0,1-1.08-.24A2,2,0,0,1,63,76.7l-3.2-7H44.36l-3.2,7a2,2,0,0,1-1.08,1.14,3.33,3.33,0,0,1-1.08.24,2.5,2.5,0,0,1-1-.22,2,2,0,0,1-1.13-1.08,3.23,3.23,0,0,1-.25-1.08,2.4,2.4,0,0,1,.23-1L49.94,46.13a2.34,2.34,0,0,1,2.16-1.38,2.34,2.34,0,0,1,2.15,1.38ZM46.52,65H57.68L52.1,52.86ZM64,28.09a2.31,2.31,0,0,1,.71-1.68,2.28,2.28,0,0,1,1.67-.7h19a2.38,2.38,0,0,1,0,4.76H78.28V97.12h7.14a2.38,2.38,0,0,1,0,4.76h-19a2.38,2.38,0,0,1,0-4.76h7.14V30.47H66.38A2.43,2.43,0,0,1,64,28.09ZM83,40V35.23H87.8a13.87,13.87,0,0,1,5.55,1.12A14.3,14.3,0,0,1,101,44a13.82,13.82,0,0,1,1.12,5.54V78.08A13.78,13.78,0,0,1,101,83.64a14.28,14.28,0,0,1-3.07,4.54,14.55,14.55,0,0,1-4.55,3.07,14,14,0,0,1-5.55,1.11H83V87.6H87.8a9.42,9.42,0,0,0,3.71-.74,9.71,9.71,0,0,0,3-2,9.52,9.52,0,0,0,2-3,9.2,9.2,0,0,0,.75-3.7V49.51a9.2,9.2,0,0,0-.75-3.7,9.52,9.52,0,0,0-2-3,9.71,9.71,0,0,0-3-2.05A9.42,9.42,0,0,0,87.8,40Z"/></svg>