<svg id="图层_1" data-name="图层 1" xmlns="http://www.w3.org/2000/svg" viewBox="0 0 128 128"><defs><style>.cls-1{fill:#fff;}</style></defs><path class="cls-1" d="M29,76.21V44.1c0-5,3.8-9.1,8.48-9.1h53C95.2,35,99,39.07,99,44.1V68.64c0,5-3.8,9.1-8.48,9.1H43.41a8.31,8.31,0,0,0-6.94,3.86L29,93Z"/><path class="cls-1" d="M32,76.21V45.36a14,14,0,0,1,.12-2.55A6.09,6.09,0,0,1,34,39.44,5.3,5.3,0,0,1,36.9,38c1.21-.14,3.17,0,4.63,0H90.36a5.32,5.32,0,0,1,4,1.79A6.47,6.47,0,0,1,96,43.09a12.9,12.9,0,0,1,0,1.36V68.64c0,.24,0,.47,0,.71,0,.05-.07.53,0,.24A6,6,0,0,1,94.39,73,4.24,4.24,0,0,1,93,74.07l-.42.22c-.46.24.33-.11-.16.08a7.58,7.58,0,0,1-1.24.34c-.35.06-.08,0,0,0-.22,0-.44,0-.66,0H43.43a11.4,11.4,0,0,0-8.88,4.44c-2.28,2.93-4.15,6.22-6.18,9.32l-2,3L32,93V76.21c0-3.86-6-3.87-6,0V93c0,3.08,4,3.94,5.59,1.51l5.92-9A17.19,17.19,0,0,1,40,82a5.23,5.23,0,0,1,3.77-1.3c6.85,0,13.7,0,20.56,0H88.42c.67,0,1.34,0,2,0a11.54,11.54,0,0,0,7.75-3.09,12.56,12.56,0,0,0,3.82-9c0-1,0-2,0-2.92,0-7.19.11-14.4,0-21.59-.1-6.5-5-12-11.64-12.1-2,0-4,0-6,0H38A11.83,11.83,0,0,0,26.5,40.55c-.8,2.73-.5,5.89-.5,8.71V76.21C26,80.07,32,80.08,32,76.21Z"/></svg>