<svg id="图层_1" data-name="图层 1" xmlns="http://www.w3.org/2000/svg" viewBox="0 0 128 128"><defs><style>.cls-1{fill:#fff;}</style></defs><path class="cls-1" d="M64,59H34L50.16,75.18a2.32,2.32,0,0,1,0,3.34,2.32,2.32,0,0,1-3.34,0L26.62,58.33a2.33,2.33,0,0,1,0-3.35l20.2-20.2a2.34,2.34,0,0,1,3.34,0,2.33,2.33,0,0,1,0,3.35L34,54.27H64a34.76,34.76,0,0,1,9.48,1.29A35.7,35.7,0,0,1,98.42,80.5,34.76,34.76,0,0,1,99.71,90,2.31,2.31,0,0,1,99,91.66,2.38,2.38,0,0,1,95,90a31.85,31.85,0,0,0-1-7.87,28.47,28.47,0,0,0-3-7.34,32.79,32.79,0,0,0-5-6.57A30.77,30.77,0,0,0,64,59Z"/></svg>