<svg id="图层_1" data-name="图层 1" xmlns="http://www.w3.org/2000/svg" viewBox="0 0 128 128"><defs><style>.cls-1{fill:#fff;}</style></defs><path class="cls-1" d="M29,32H85c3.86,0,3.87-6,0-6H29c-3.86,0-3.87,6,0,6Z"/><path class="cls-1" d="M29,50H75c3.86,0,3.87-6,0-6H29c-3.86,0-3.87,6,0,6Z"/><path class="cls-1" d="M29,67H63c3.86,0,3.87-6,0-6H29c-3.86,0-3.87,6,0,6Z"/><path class="cls-1" d="M29,84H75c3.86,0,3.87-6,0-6H29c-3.86,0-3.87,6,0,6Z"/><path class="cls-1" d="M29,102H85c3.86,0,3.87-6,0-6H29c-3.86,0-3.87,6,0,6Z"/><path class="cls-1" d="M87.13,46.59l6.38-4L89,40V64c0,3.86,6,3.87,6,0V40a3,3,0,0,0-4.51-2.59l-6.39,4c-3.26,2-.26,7.24,3,5.18Z"/><path class="cls-1" d="M100.21,41.41l-5.87-3.5-.83-.5a3,3,0,1,0-3,5.18l5.86,3.5.83.5a3.06,3.06,0,0,0,2.31.3,3,3,0,0,0,.72-5.48Z"/><path class="cls-1" d="M89,64V88l4.51-2.59-6.38-4c-3.28-2.06-6.3,3.13-3,5.18l6.39,4A3,3,0,0,0,95,88V64c0-3.86-6-3.87-6,0Z"/><path class="cls-1" d="M93.51,90.59l5.87-3.5.83-.5a3.17,3.17,0,0,0,1.38-1.79,3.1,3.1,0,0,0-.31-2.31,3,3,0,0,0-1.79-1.38,3.1,3.1,0,0,0-2.31.3l-5.86,3.5-.83.5a3.08,3.08,0,0,0-1.38,1.79,3,3,0,0,0,.3,2.31,3,3,0,0,0,1.79,1.38,3.1,3.1,0,0,0,2.31-.3Z"/></svg>