<svg id="图层_1" data-name="图层 1" xmlns="http://www.w3.org/2000/svg" viewBox="0 0 128 128"><defs><style>.cls-1{fill:#fff;}</style></defs><path class="cls-1" d="M95,54.48,80.92,46.34,55.54,31.69l-9-5.18C44.22,25.15,42,23.8,39.2,23.57c-6.41-.5-11.66,4.91-11.7,11.15,0,2.08,0,4.16,0,6.23v50.7c0,3.6.57,7.07,3.35,9.7,3.85,3.66,9.26,3.86,13.73,1.29l18-10.39L87.29,78l6.94-4c3.85-2.22,6.63-6,6.24-10.68A11.2,11.2,0,0,0,95,54.48c-3.31-2-6.33,3.19-3,5.18a4.26,4.26,0,0,1,1.32,1.08c.39.41.18.2.09.08.09.11.17.24.25.36l.29.5c0,.09.32.67.12.2a6.17,6.17,0,0,1,.3.95c0,.16.15,1,.11.46,0,.33,0,.66,0,1a3.1,3.1,0,0,1,0,.43c0-.56,0,.06,0,.18a9.67,9.67,0,0,1-.27,1c0,.09-.22.52,0,.08a2.87,2.87,0,0,1-.2.39,7.73,7.73,0,0,1-.54.86c.27-.34-.4.4-.51.51a5,5,0,0,1-.91.65.41.41,0,0,0-.11.07c-1.64,1-3.3,1.9-4.94,2.85l-22.5,13-20.68,12L41.48,97.5l-.45.26-.34.18a1.5,1.5,0,0,1-.62.26c-.19,0-1.28.26-.87.23-.3,0-.6,0-.9,0s-.4,0-.6,0c.17,0,.46.11-.08,0-.33-.09-.66-.17-1-.28s0,0,0,0c-.23-.1-.44-.22-.66-.34s-.85-.57-.48-.28a9.87,9.87,0,0,1-.75-.7c-.11-.11-.2-.22-.3-.33.28.33,0,0-.06-.11a6.74,6.74,0,0,1-.59-1c.15.36-.13-.44-.17-.58s-.17-1-.13-.62a5.78,5.78,0,0,1,0-.72V36.59c0-.63,0-1.26,0-1.9v-.3a2.13,2.13,0,0,1,.12-1,6.55,6.55,0,0,1,.27-.89c-.14.36.29-.53.36-.65s.16-.25.25-.37c.29-.41-.25.27.08-.1a8.13,8.13,0,0,1,.84-.82c.26-.23,0,0,0,0,.15-.11.32-.22.49-.32s.8-.42.69-.37.55-.18.76-.23l.57-.13c-.32.06-.12,0,.09,0s.7,0,1,0c.51,0-.39-.08.11,0l.46.1a4,4,0,0,1,1.37.55l1.1.64L49.2,35,73,48.71,91,59.1l1,.56C95.34,61.6,98.36,56.41,95,54.48Z"/></svg>