<svg id="图层_1" data-name="图层 1" xmlns="http://www.w3.org/2000/svg" viewBox="0 0 128 128"><defs><style>.cls-1{fill:#fff;}</style></defs><path class="cls-1" d="M26.21,75V85.59c0,1.25-.05,2.51,0,3.77a11.19,11.19,0,0,0,5.48,9.27c2.46,1.4,5,1.37,7.69,1.37H76c5.06,0,10.14.1,15.21,0a10.72,10.72,0,0,0,9-5.26,12.7,12.7,0,0,0,1.56-6.64V75c0-3.86-6-3.87-6,0V85c0,1.31,0,2.62,0,3.93a5.58,5.58,0,0,1-.74,2.75,5.11,5.11,0,0,1-2.23,2,5.18,5.18,0,0,1-2.28.31H52.49c-5.2,0-10.4.08-15.6,0h-.07c-.14,0-.71,0-.6,0-.06,0-.75-.18-1-.29a5.15,5.15,0,0,1-2.23-2,7.13,7.13,0,0,1-.74-4V75c0-3.86-6-3.87-6,0Z"/><path class="cls-1" d="M77,60.71,63.76,73.92,61.88,75.8,67,77.92V31H61V77.92l5.12-2.12L52.91,62.59,51,60.71c-2.74-2.74-7,1.5-4.25,4.24L60,78.16,61.88,80A3,3,0,0,0,67,77.92V31c0-3.86-6-3.87-6,0V77.92A3,3,0,0,0,66.12,80L79.33,66.83,81.22,65C84,62.21,79.71,58,77,60.71Z"/></svg>