<svg id="图层_1" data-name="图层 1" xmlns="http://www.w3.org/2000/svg" viewBox="0 0 128 128"><defs><style>.cls-1{fill:#fff;}</style></defs><path class="cls-1" d="M97.33,94.74a2.38,2.38,0,0,1-4.06,1.68L73.6,76.74a26.15,26.15,0,0,1-23.7,5.17,26,26,0,0,1-6.25-2.64,26.73,26.73,0,0,1-9.41-9.41,26.13,26.13,0,0,1,0-26.41A26.73,26.73,0,0,1,43.65,34,26.29,26.29,0,0,1,63.81,31.4,25.7,25.7,0,0,1,70.06,34a26.33,26.33,0,0,1,5.3,4.11,26.61,26.61,0,0,1,4.11,5.3,26.1,26.1,0,0,1-2.53,29.94L96.62,93.07A2.29,2.29,0,0,1,97.33,94.74Zm-19-38.09A21,21,0,0,0,77.52,51a21.53,21.53,0,0,0-15-15,20.91,20.91,0,0,0-5.67-.76,20.68,20.68,0,0,0-8.33,1.69,21.57,21.57,0,0,0-11.4,11.4,20.72,20.72,0,0,0-1.7,8.33A20.93,20.93,0,0,0,37.11,65a21.35,21.35,0,0,0,4.57,6.81,21.58,21.58,0,0,0,6.81,4.57,21.53,21.53,0,0,0,16.7,0A21.57,21.57,0,0,0,76.59,65,20.73,20.73,0,0,0,78.28,56.65Z"/></svg>