<svg id="图层_1" data-name="图层 1" xmlns="http://www.w3.org/2000/svg" viewBox="0 0 128 128"><defs><style>.cls-1{fill:#fff;}</style></defs><path class="cls-1" d="M48.27,86.6a7.18,7.18,0,0,0-2.57.48l-1.9.78-1.23.52q-.93.42-1.89.78a7,7,0,0,1-2.57.49,4.5,4.5,0,0,1-2-.47,5.51,5.51,0,0,1-1.68-1.32,18.18,18.18,0,0,1-1.13-1.49c-.44-.62-.89-1.3-1.36-2S31,82.8,30.49,82s-.89-1.64-1.25-2.42a18.72,18.72,0,0,1-.87-2.22A5.67,5.67,0,0,1,28,75.59a4.34,4.34,0,0,1,.67-2.4,9.19,9.19,0,0,1,1.66-1.94,19.33,19.33,0,0,1,2.15-1.65,19.25,19.25,0,0,0,2.16-1.66,9.9,9.9,0,0,0,1.66-1.86,4.2,4.2,0,0,0,0-4.55,9.5,9.5,0,0,0-1.68-1.88A26.94,26.94,0,0,0,32.49,58a26.63,26.63,0,0,1-2.15-1.73,9.88,9.88,0,0,1-1.68-2A4.33,4.33,0,0,1,28,51.89a5.55,5.55,0,0,1,.36-1.71A21,21,0,0,1,29.26,48c.37-.79.8-1.61,1.28-2.44s1-1.62,1.45-2.38.95-1.44,1.4-2.06a15.28,15.28,0,0,1,1.15-1.45,5.41,5.41,0,0,1,1.69-1.27,4.84,4.84,0,0,1,2-.44,6.89,6.89,0,0,1,2.53.48c.82.32,1.64.68,2.45,1.06s1.65.74,2.48,1.06a7,7,0,0,0,2.55.48,4.35,4.35,0,0,0,4.38-3.68L54,30a4.63,4.63,0,0,1,1.36-2.56A5.14,5.14,0,0,1,58,26.15a27.64,27.64,0,0,1,3-.35c1-.06,2-.09,3-.09s2.08,0,3.12.11a24.41,24.41,0,0,1,3.09.41,4.62,4.62,0,0,1,3.87,3.87c.12.59.24,1.2.34,1.82L75,35.49c.12.59.24,1.2.33,1.82A4.41,4.41,0,0,0,76.87,40a4.26,4.26,0,0,0,2.86,1,7.18,7.18,0,0,0,2.57-.48c.64-.25,1.28-.51,1.9-.78l1.22-.52,1.9-.78a7.19,7.19,0,0,1,2.57-.49,4.46,4.46,0,0,1,2.06.47,5.56,5.56,0,0,1,1.66,1.32,18.18,18.18,0,0,1,1.13,1.49c.44.62.89,1.3,1.36,2s.94,1.53,1.41,2.37.89,1.63,1.25,2.41a18.72,18.72,0,0,1,.87,2.22A5.67,5.67,0,0,1,100,52a4.33,4.33,0,0,1-.67,2.42,9.09,9.09,0,0,1-1.66,1.92A19.33,19.33,0,0,1,95.49,58a20.51,20.51,0,0,0-2.16,1.66,9.9,9.9,0,0,0-1.66,1.86,4.2,4.2,0,0,0,0,4.55,9.5,9.5,0,0,0,1.68,1.88,26.28,26.28,0,0,0,2.15,1.69,25.16,25.16,0,0,1,2.16,1.73,9.88,9.88,0,0,1,1.68,2A4.33,4.33,0,0,1,100,75.7a5.44,5.44,0,0,1-.36,1.76,21.82,21.82,0,0,1-.91,2.22c-.37.79-.8,1.6-1.28,2.42s-1,1.6-1.45,2.34-1,1.43-1.42,2S93.74,87.6,93.42,88a5.5,5.5,0,0,1-1.65,1.27,4.43,4.43,0,0,1-2,.44,7.11,7.11,0,0,1-2.51-.48c-.86-.32-1.71-.68-2.55-1.06S83,87.4,82.19,87.08a6.89,6.89,0,0,0-2.46-.48,4.14,4.14,0,0,0-2.53.67A4.35,4.35,0,0,0,75.83,89a9.14,9.14,0,0,0-.69,2.34c-.14.85-.28,1.68-.43,2.47L74,97.57a4.59,4.59,0,0,1-1.34,2.58A5.14,5.14,0,0,1,70,101.44a27.56,27.56,0,0,1-3,.35q-1.5.09-3,.09c-1,0-2.08,0-3.12-.11a24.17,24.17,0,0,1-3.09-.41A4.71,4.71,0,0,1,55.22,100a4.89,4.89,0,0,1-1.3-2.58c-.17-.9-.34-1.79-.48-2.68L53.14,93c-.15-.9-.31-1.79-.49-2.68a4.34,4.34,0,0,0-1.52-2.64A4.26,4.26,0,0,0,48.27,86.6Zm21,10.15c.1-.54.21-1.22.33-2s.26-1.63.41-2.47.31-1.65.49-2.42A13.6,13.6,0,0,1,71.07,88a9.39,9.39,0,0,1,3.35-4.46,8.75,8.75,0,0,1,5.31-1.68,9,9,0,0,1,2.33.36c.88.23,1.78.51,2.71.84s1.83.65,2.7,1,1.64.64,2.31.89a30.88,30.88,0,0,0,3.08-4.41,37.52,37.52,0,0,0,2.35-4.81v0l-5.69-4.83a8.88,8.88,0,0,1-2.42-3.15,9.08,9.08,0,0,1-.86-3.88,9,9,0,0,1,.88-3.91,9.09,9.09,0,0,1,2.43-3.16L95.17,52v0a4,4,0,0,0-.15-.42,1.89,1.89,0,0,0-.19-.43,28.91,28.91,0,0,0-2.13-4.41,34.25,34.25,0,0,0-2.81-4h0l-7,2.52a9.26,9.26,0,0,1-7.7-.7,8.84,8.84,0,0,1-3-2.68,9.35,9.35,0,0,1-1.54-3.68l-1.27-7.26A33.5,33.5,0,0,0,64,30.47c-.89,0-1.79,0-2.68.09s-1.77.16-2.64.28c-.22,1.24-.43,2.47-.63,3.68s-.44,2.43-.71,3.65a9.9,9.9,0,0,1-1.15,3,9.37,9.37,0,0,1-2,2.4,9.48,9.48,0,0,1-2.68,1.58,8.87,8.87,0,0,1-3.2.58,9,9,0,0,1-3.16-.56h0l-6.84-2.53h0a37.54,37.54,0,0,0-3.08,4.41,30.6,30.6,0,0,0-2.35,4.81v0l5.69,4.84a8.87,8.87,0,0,1,2.42,3.14,9.15,9.15,0,0,1,0,7.79,9,9,0,0,1-2.43,3.16l-5.62,4.69v0A4,4,0,0,0,33,76a3.21,3.21,0,0,0,.18.43,29.93,29.93,0,0,0,2.14,4.41,33.44,33.44,0,0,0,2.81,4h0l7-2.52a9.26,9.26,0,0,1,7.7.7,8.84,8.84,0,0,1,3,2.68,9.35,9.35,0,0,1,1.54,3.68l1.27,7.26a33.5,33.5,0,0,0,5.39.44c.89,0,1.79,0,2.68-.09S68.45,96.88,69.32,96.75ZM49.72,63.8a14,14,0,0,1,1.11-5.58,14.39,14.39,0,0,1,3.05-4.54,14.23,14.23,0,0,1,4.54-3,14.46,14.46,0,0,1,11.16,0,14.2,14.2,0,0,1,7.59,7.59,14.58,14.58,0,0,1,0,11.16A14.22,14.22,0,0,1,69.58,77a14.46,14.46,0,0,1-11.16,0,14.23,14.23,0,0,1-4.54-3,14.46,14.46,0,0,1-3.05-4.53A14.11,14.11,0,0,1,49.72,63.8Zm23.8,0a9.42,9.42,0,0,0-.74-3.71A9.59,9.59,0,0,0,67.7,55a9.5,9.5,0,0,0-7.4,0,9.59,9.59,0,0,0-5.08,5.07,9.65,9.65,0,0,0,0,7.41,9.71,9.71,0,0,0,2.05,3,9.52,9.52,0,0,0,3,2,9.5,9.5,0,0,0,7.4,0,9.52,9.52,0,0,0,3-2,9.71,9.71,0,0,0,2-3A9.4,9.4,0,0,0,73.52,63.8Z"/></svg>