<svg id="图层_1" data-name="图层 1" xmlns="http://www.w3.org/2000/svg" xmlns:xlink="http://www.w3.org/1999/xlink" viewBox="0 0 128 128"><defs><style>.cls-1{fill:url(#未命名的渐变_8);}.cls-2{fill:url(#未命名的渐变_2);}.cls-3{fill:url(#未命名的渐变_4);}</style><radialGradient id="未命名的渐变_8" cx="48.65" cy="49.78" r="42.72" gradientUnits="userSpaceOnUse"><stop offset="0" stop-color="#c3c9cd"/><stop offset="1" stop-color="#fcfcfc"/></radialGradient><linearGradient id="未命名的渐变_2" x1="31.95" y1="32.16" x2="99.24" y2="99.45" gradientUnits="userSpaceOnUse"><stop offset="0" stop-color="#8b9299"/><stop offset="1" stop-color="#626f7a"/></linearGradient><radialGradient id="未命名的渐变_4" cx="52.53" cy="54.07" r="26.25" gradientUnits="userSpaceOnUse"><stop offset="0" stop-color="#0669bc"/><stop offset="1" stop-color="#104b8d"/></radialGradient></defs><circle class="cls-1" cx="63.58" cy="63.78" r="25.75"/><path class="cls-2" d="M111.58,59.49V69.57h0c0,2.2-1.5,4.46-3.1,4.51a15.7,15.7,0,0,0-13.63,23.3,2.61,2.61,0,0,1-.81,3.74,48.85,48.85,0,0,1-12.93,7.35,2.77,2.77,0,0,1-3.67-1c-6.79-9.23-20.59-9.84-26.94-.31-1,1.55-2.25,2.12-3.84,1.24-4.18-2.31-8.38-4.59-12.42-7.11C32,99.86,32,99.15,33.13,96.76a15.06,15.06,0,0,0,.8-12.14C31.52,78,26.61,74.44,19.62,73.87c-2-.16-3.1-1-3.13-2.92-.07-4.83-.1-9.67,0-14.5,0-1.64,1-2.47,2.78-2.59C31.41,53.09,38,41.79,32.83,30.76c-.79-1.67-.61-2.91.89-4.06a50.3,50.3,0,0,1,12.62-7.15c1.74-.68,2.87-.25,3.93,1.31,6.73,9.88,20.07,9.86,26.79,0,1.08-1.59,2.31-2.07,3.93-1.19,3.93,2.13,7.91,4.19,11.67,6.58,3,1.94,2.93,2.25,1.48,5.46-4.21,9.32,1.3,20.45,11.39,22C109.53,54.23,111.49,55.52,111.58,59.49Zm-24,4.64A23.84,23.84,0,1,0,63.9,87.85,23.72,23.72,0,0,0,87.63,64.13Z"/><path class="cls-3" d="M47.59,63.89A16,16,0,0,1,63.45,47.73c9-.27,16.58,7.43,16.48,16-.1,9.36-7,16.41-16.18,16.41A15.89,15.89,0,0,1,47.59,63.89Z"/></svg>