<svg id="图层_1" data-name="图层 1" xmlns="http://www.w3.org/2000/svg" xmlns:xlink="http://www.w3.org/1999/xlink" viewBox="0 0 128 128"><defs><style>.cls-1{fill:url(#未命名的渐变_8);}.cls-2{fill:url(#未命名的渐变_2);}.cls-3{fill:url(#未命名的渐变_4);}</style><radialGradient id="未命名的渐变_8" cx="48.96" cy="50.07" r="41.86" gradientUnits="userSpaceOnUse"><stop offset="0" stop-color="#c3c9cd"/><stop offset="1" stop-color="#fcfcfc"/></radialGradient><linearGradient id="未命名的渐变_2" x1="32.59" y1="32.8" x2="98.53" y2="98.74" gradientUnits="userSpaceOnUse"><stop offset="0" stop-color="#8b9299"/><stop offset="1" stop-color="#626f7a"/></linearGradient><radialGradient id="未命名的渐变_4" cx="52.76" cy="54.26" r="25.72" gradientUnits="userSpaceOnUse"><stop offset="0" stop-color="#0669bc"/><stop offset="1" stop-color="#104b8d"/></radialGradient></defs><circle class="cls-1" cx="63.59" cy="63.79" r="25.23"/><path class="cls-2" d="M110.63,59.58v9.88a0,0,0,0,0,0,0c0,2.16-1.46,4.37-3,4.42A15.37,15.37,0,0,0,94.24,96.72a2.56,2.56,0,0,1-.8,3.67,48.09,48.09,0,0,1-12.68,7.2,2.7,2.7,0,0,1-3.59-1c-6.65-9-20.18-9.65-26.4-.31-1,1.52-2.21,2.08-3.76,1.22-4.1-2.26-8.21-4.49-12.18-7-2.22-1.39-2.22-2.09-1.08-4.43a14.76,14.76,0,0,0,.78-11.9c-2.36-6.5-7.18-10-14-10.53-1.93-.16-3-1-3.06-2.85-.07-4.74-.1-9.48,0-14.22,0-1.61,1-2.42,2.73-2.53,11.91-.76,18.41-11.84,13.3-22.65-.77-1.63-.6-2.85.87-4a49.94,49.94,0,0,1,12.38-7c1.7-.66,2.81-.25,3.85,1.28,6.59,9.68,19.66,9.67,26.25,0,1-1.56,2.27-2,3.85-1.17,3.85,2.09,7.75,4.1,11.44,6.45,3,1.9,2.87,2.2,1.45,5.35-4.13,9.13,1.28,20,11.16,21.51C108.62,54.42,110.54,55.69,110.63,59.58ZM87.16,64.13A23.37,23.37,0,1,0,63.9,87.37,23.25,23.25,0,0,0,87.16,64.13Z"/><path class="cls-3" d="M47.92,63.89A15.72,15.72,0,0,1,63.46,48.05c8.8-.26,16.25,7.28,16.15,15.65-.1,9.17-6.81,16.08-15.85,16.08A15.58,15.58,0,0,1,47.92,63.89Z"/></svg>