<svg id="图层_1" data-name="图层 1" xmlns="http://www.w3.org/2000/svg" viewBox="0 0 128 128"><defs><style>.cls-1{fill:#fff;}</style></defs><path class="cls-1" d="M42.31,97.12a10.67,10.67,0,0,1-4.46-1,12.14,12.14,0,0,1-6.23-6.23,10.83,10.83,0,0,1-.95-4.46V46.87a10.83,10.83,0,0,1,.95-4.46,12.14,12.14,0,0,1,6.23-6.23,10.83,10.83,0,0,1,4.46-1H56.86a2.38,2.38,0,0,1,0,4.76H42.57a7,7,0,0,0-2.75.56A7.18,7.18,0,0,0,36,44.38a6.93,6.93,0,0,0-.56,2.75V85.22A6.93,6.93,0,0,0,36,88a7.33,7.33,0,0,0,1.54,2.29,7.16,7.16,0,0,0,2.29,1.54,6.8,6.8,0,0,0,2.75.56H80.66a6.81,6.81,0,0,0,2.76-.56A7.27,7.27,0,0,0,87.25,88a6.93,6.93,0,0,0,.55-2.75V80.46a2.39,2.39,0,0,1,4.77,0v4.76a11.68,11.68,0,0,1-.91,4.54,12.2,12.2,0,0,1-2.5,3.79,12,12,0,0,1-3.7,2.61,10.84,10.84,0,0,1-4.54,1Zm33.89-19a2.5,2.5,0,0,1-1.92-.82,2.78,2.78,0,0,1-.76-1.93v-10c-.79.07-1.59.15-2.38.24a18,18,0,0,0-2.38.43,48,48,0,0,0-5.93,1.78,42.09,42.09,0,0,0-5.32,2.44,48.61,48.61,0,0,0-5,3.14,61.52,61.52,0,0,0-4.79,3.87,4.4,4.4,0,0,1-.86.54,2.25,2.25,0,0,1-1,.2,2.6,2.6,0,0,1-2-.83,2.82,2.82,0,0,1-.78-2V75a54.59,54.59,0,0,1,3-12.38A31,31,0,0,1,52,52.79a27,27,0,0,1,9-6.59,33.84,33.84,0,0,1,12.53-2.82V33.22a2.69,2.69,0,0,1,.75-1.91,2.43,2.43,0,0,1,1.89-.8,2.56,2.56,0,0,1,1.9.74l21.42,21a2.4,2.4,0,0,1,.6,1,3.49,3.49,0,0,1,.19,1.1,2.55,2.55,0,0,1-.79,1.89L78.06,77.3A2.54,2.54,0,0,1,76.2,78.08Zm2.08-7.66L94.69,54.27,78.28,38.13V47.8l-5.46.37a29.13,29.13,0,0,0-9.23,2.09,21.51,21.51,0,0,0-7.74,5.39,25.4,25.4,0,0,0-2.47,3.18,29.13,29.13,0,0,0-2,3.63,34,34,0,0,0-1.54,3.88,29.75,29.75,0,0,0-1,3.93,43.9,43.9,0,0,1,10.83-6.36,49.64,49.64,0,0,1,12.12-3.2c1.07-.15,2.15-.26,3.24-.32s2.18-.14,3.27-.24Z"/></svg>