<svg id="图层_1" data-name="图层 1" xmlns="http://www.w3.org/2000/svg" viewBox="0 0 128 128"><defs><style>.cls-1{fill:#fff;}</style></defs><path class="cls-1" d="M42,100.1a2.22,2.22,0,0,1-1.67-.73,2.3,2.3,0,0,1-.71-1.69,1.53,1.53,0,0,1,0-.41l4-23.28L26.69,57.51a2.28,2.28,0,0,1-.7-1.67,2.37,2.37,0,0,1,.59-1.57A2.4,2.4,0,0,1,28,53.42L51.39,50l10.49-21.2a2.41,2.41,0,0,1,.87-.95A2.35,2.35,0,0,1,64,27.53a2.59,2.59,0,0,1,1.27.33,2.2,2.2,0,0,1,.89,1L76.61,50,100,53.42a2.42,2.42,0,0,1,1.47.82A2.31,2.31,0,0,1,102,55.8a2.26,2.26,0,0,1-.7,1.71L84.38,74l4,23.28a1.53,1.53,0,0,1,0,.41A2.43,2.43,0,0,1,86,100.06a2.4,2.4,0,0,1-1.12-.26L64,88.79l-20.9,11A2.21,2.21,0,0,1,42,100.1Z"/></svg>