<svg id="图层_1" data-name="图层 1" xmlns="http://www.w3.org/2000/svg" viewBox="0 0 128 128"><defs><style>.cls-1{fill:#fff;}</style></defs><path class="cls-1" d="M43.62,74,26.69,57.51a2.28,2.28,0,0,1-.7-1.67,2.37,2.37,0,0,1,.59-1.57A2.4,2.4,0,0,1,28,53.42L51.39,50l10.49-21.2a2.39,2.39,0,0,1,.89-.95,2.34,2.34,0,0,1,2.46,0,2.39,2.39,0,0,1,.89.95L76.61,50,100,53.42a2.42,2.42,0,0,1,1.47.82,2.43,2.43,0,0,1-.13,3.27L84.38,74l4,23.28a1.53,1.53,0,0,1,0,.41A2.43,2.43,0,0,1,86,100.06a2.4,2.4,0,0,1-1.12-.26L64,88.79l-20.9,11a2.4,2.4,0,0,1-1.12.26,2.43,2.43,0,0,1-2.38-2.38,1.53,1.53,0,0,1,0-.41Zm1.52,19.34L64,83.4l18.86,9.93q-.9-5.28-1.77-10.51T79.25,72.31L94.54,57.44l-21.09-3q-2.43-4.8-4.74-9.56T64,35.27q-2.39,4.8-4.71,9.56t-4.74,9.56l-21.09,3L48.75,72.31q-1,5.28-1.84,10.51T45.14,93.33Z"/></svg>