<svg id="图层_1" data-name="图层 1" xmlns="http://www.w3.org/2000/svg" viewBox="0 0 128 128"><defs><style>.cls-1{fill:#fff;}</style></defs><path class="cls-1" d="M29,32H85c3.86,0,3.87-6,0-6H29c-3.86,0-3.87,6,0,6Z"/><path class="cls-1" d="M29,50H75c3.86,0,3.87-6,0-6H29c-3.86,0-3.87,6,0,6Z"/><path class="cls-1" d="M29,67H63c3.86,0,3.87-6,0-6H29c-3.86,0-3.87,6,0,6Z"/><path class="cls-1" d="M29,84H75c3.86,0,3.87-6,0-6H29c-3.86,0-3.87,6,0,6Z"/><path class="cls-1" d="M29,102H85c3.86,0,3.87-6,0-6H29c-3.86,0-3.87,6,0,6Z"/></svg>