<svg id="图层_1" data-name="图层 1" xmlns="http://www.w3.org/2000/svg" viewBox="0 0 128 128"><defs><style>.cls-1{fill:#fff;}</style></defs><path class="cls-1" d="M88,35.23a8.49,8.49,0,0,1,3.55.76,10,10,0,0,1,3,2,9.71,9.71,0,0,1,2,3,8.57,8.57,0,0,1,.77,3.56V87.79a8.53,8.53,0,0,1-.77,3.55,9.59,9.59,0,0,1-2,3,10,10,0,0,1-3,2,8.49,8.49,0,0,1-3.55.76H40a8.49,8.49,0,0,1-3.55-.76,10,10,0,0,1-3-2,9.79,9.79,0,0,1-2-3,8.68,8.68,0,0,1-.76-3.55V58.85a8.58,8.58,0,0,1,.78-3.63,9.7,9.7,0,0,1,2.09-2.95,9.55,9.55,0,0,1,3-2,9,9,0,0,1,3.62-.75h9.53V44.57A8.56,8.56,0,0,1,50.48,41a10.07,10.07,0,0,1,2-3,10,10,0,0,1,3-2,8.52,8.52,0,0,1,3.55-.76ZM78.28,92.36A4.58,4.58,0,0,0,80.14,92a4.79,4.79,0,0,0,2.53-2.53A4.58,4.58,0,0,0,83,87.6V59a4.65,4.65,0,0,0-.37-1.84,4.84,4.84,0,0,0-1-1.52,4.87,4.87,0,0,0-3.37-1.4H40.19a4.8,4.8,0,0,0-4.38,2.9A4.65,4.65,0,0,0,35.43,59V87.6A4.66,4.66,0,0,0,38.32,92a4.66,4.66,0,0,0,1.87.37ZM92.57,44.75a4.82,4.82,0,0,0-1.4-3.36A4.71,4.71,0,0,0,87.8,40H59.24a4.94,4.94,0,0,0-1.84.35,4.42,4.42,0,0,0-1.55,1.06,5.39,5.39,0,0,0-1,1.53,4.49,4.49,0,0,0-.37,1.82v4.76h24a8.68,8.68,0,0,1,3.55.76,9.88,9.88,0,0,1,5,5,8.49,8.49,0,0,1,.76,3.55V87.6a9.52,9.52,0,0,1-1.26,4.76H87.8A4.66,4.66,0,0,0,89.67,92a4.82,4.82,0,0,0,2.52-2.53,4.58,4.58,0,0,0,.38-1.86Z"/></svg>