<svg id="图层_1" data-name="图层 1" xmlns="http://www.w3.org/2000/svg" viewBox="0 0 128 128"><defs><style>.cls-1{fill:#fff;}</style></defs><path class="cls-1" d="M40.19,63.57V32.85a2.31,2.31,0,0,1,.71-1.68,2.35,2.35,0,0,1,3.35,0A2.31,2.31,0,0,1,45,32.85V63.94a17.77,17.77,0,0,0,1.52,7.31,19.28,19.28,0,0,0,4.13,6,19.75,19.75,0,0,0,6.06,4.07A18.08,18.08,0,0,0,64,82.84a18.34,18.34,0,0,0,7.46-1.53,18.89,18.89,0,0,0,6-4.14,19.88,19.88,0,0,0,4.06-6.12A18.91,18.91,0,0,0,83,63.57V32.85a2.31,2.31,0,0,1,.71-1.68,2.38,2.38,0,0,1,4,1.68V63.57A23.81,23.81,0,0,1,87,69.93a24.14,24.14,0,0,1-2.38,5.73,24,24,0,0,1-8.54,8.63,24.67,24.67,0,0,1-5.69,2.44,23.68,23.68,0,0,1-12.72,0A24.67,24.67,0,0,1,52,84.29a24,24,0,0,1-8.54-8.63,24.27,24.27,0,0,1-3.22-12.09Zm2.38,33.55a2.38,2.38,0,0,1,0-4.76H85.42a2.38,2.38,0,0,1,0,4.76Z"/></svg>