<svg id="图层_1" data-name="图层 1" xmlns="http://www.w3.org/2000/svg" viewBox="0 0 128 128"><defs><style>.cls-1{fill:#fff;}</style></defs><path class="cls-1" d="M97.33,49.51a23.27,23.27,0,0,1-2.25,10.1,24.29,24.29,0,0,1-6.34,8.2L48.86,101.33a2.31,2.31,0,0,1-1.52.55A2.39,2.39,0,0,1,45,99.5a2.35,2.35,0,0,1,.22-1,2.31,2.31,0,0,1,.63-.82L85.68,64.17a18.85,18.85,0,0,0,5.18-6.73,20.15,20.15,0,0,0,1.71-8.3,17,17,0,0,0-.69-4.83,19,19,0,0,0-1.94-4.43,19.79,19.79,0,0,0-6.78-6.79,19.19,19.19,0,0,0-4.43-1.93,17.06,17.06,0,0,0-4.84-.69,20.58,20.58,0,0,0-6.67,1.08,18.18,18.18,0,0,0-5.86,3.31L43.77,49.51H61.62a2.38,2.38,0,0,1,0,4.76H37.81a2.41,2.41,0,0,1-2.38-2.38V28.09a2.31,2.31,0,0,1,.71-1.68,2.38,2.38,0,0,1,4,1.68V46.28L58.31,31.21a23.41,23.41,0,0,1,7.12-4.09,23.75,23.75,0,0,1,8.09-1.41,23.27,23.27,0,0,1,9.28,1.86A23.79,23.79,0,0,1,95.47,40.23,23.27,23.27,0,0,1,97.33,49.51Z"/></svg>