<svg id="图层_1" data-name="图层 1" xmlns="http://www.w3.org/2000/svg" viewBox="0 0 128 128"><defs><style>.cls-1{fill:#fff;}</style></defs><path class="cls-1" d="M102.13,99.5a2.41,2.41,0,0,1-2.38,2.38,2.35,2.35,0,0,1-1.72-.7L74.12,77.26,68.65,95.41a2.4,2.4,0,0,1-.84,1.23,2.24,2.24,0,0,1-1.43.48,2.28,2.28,0,0,1-1.67-.7l-15-15L29.26,101.88H25.91V98.5L46.37,78.08l-15-15a2.33,2.33,0,0,1-.71-1.71,2.14,2.14,0,0,1,.41-1.3,2.56,2.56,0,0,1,1.08-.86l17.07-6.84L26.62,29.76a2.29,2.29,0,0,1-.71-1.67,2.2,2.2,0,0,1,.73-1.69,2.36,2.36,0,0,1,1.69-.69,2.28,2.28,0,0,1,1.67.7l71.42,71.42A2.29,2.29,0,0,1,102.13,99.5ZM37.29,62.27l27.94,28,5.06-16.81L52.88,56ZM60.32,50l-3.57-3.57,7-15.44a6.87,6.87,0,0,1,2.62-3.07,7,7,0,0,1,3.89-1.13,7.14,7.14,0,0,1,2.73.54,6.87,6.87,0,0,1,2.33,1.54L98.74,52.34a7,7,0,0,1,1.54,2.34,7.33,7.33,0,0,1,.54,2.76A7.12,7.12,0,0,1,96.43,64L80.81,70.49l-3.64-3.64,17.44-7.29a2.41,2.41,0,0,0,1.06-.88,2.28,2.28,0,0,0,.39-1.32,2.24,2.24,0,0,0-.67-1.67L71.92,32.25a2.69,2.69,0,0,0-.78-.5,2.41,2.41,0,0,0-.89-.2,2.22,2.22,0,0,0-1.28.39,2.48,2.48,0,0,0-.88,1Z"/></svg>