<svg id="图层_1" data-name="图层 1" xmlns="http://www.w3.org/2000/svg" xmlns:xlink="http://www.w3.org/1999/xlink" viewBox="0 0 512 512"><defs><style>.cls-1{fill:url(#未命名的渐变_6);}.cls-2{fill:url(#未命名的渐变_7);}</style><radialGradient id="未命名的渐变_6" cx="80.71" cy="318.7" r="341.18" gradientUnits="userSpaceOnUse"><stop offset="0" stop-color="#0870c2"/><stop offset="1" stop-color="#0a74c5"/></radialGradient><radialGradient id="未命名的渐变_7" cx="195.74" cy="95.09" r="257.85" gradientUnits="userSpaceOnUse"><stop offset="0" stop-color="#1493df"/><stop offset="1" stop-color="#1087d5"/></radialGradient></defs><path class="cls-1" d="M93.64,315.79c20.62,0,39,.12,57.46,0,16.67-.15,27.7-9.8,27.81-23.93.1-13.73-11.34-24-27.66-24.12q-56-.3-112.07,0c-18.32.1-27.24,8.91-27.34,26.93q-.3,57,0,113.93c0,15.94,9.31,26.45,23.06,26.92,14.25.48,24.57-10.32,24.91-26.78.32-15,.07-30.09.07-49.47,15.5,24.47,29.84,44.64,48.63,61.12C156.85,462.75,212.84,482.6,277,475.94c80.29-8.32,138.67-49.76,176.11-121.19,8.56-16.33,5.13-29.53-8.44-36.46-13.2-6.74-25.55-1.19-34.23,15.25-32.47,61.51-84,94.47-152.69,95.31-67.86.82-119.15-31.46-153.49-90.29C100.46,332.11,97.87,325,93.64,315.79Z"/><path class="cls-2" d="M416.64,196c-18.5,0-36.89-.12-55.28,0-16.78.14-27.84,9.67-28,23.75-.15,13.8,11.21,24.05,27.62,24.13q56.07.27,112.13,0c18.36-.13,27-8.89,27.08-27.17q.24-57-.05-114c-.08-15.59-10.11-26.35-23.73-26.29S453,87.19,452.68,103c-.34,15.14-.07,30.29-.07,49.27-12.72-17.38-22.26-32.72-34.38-46.16C315.44-7.91,126.3,18.92,58.83,157.25c-8,16.44-4.76,29.56,9,36.34,12.93,6.36,25.08,1,33.41-14.48,28.46-53,71-87,131.3-94.7,71.47-9.16,127.42,18.32,168.49,77C415.17,181.5,415,182.57,416.64,196Z"/></svg>