<svg id="图层_1" data-name="图层 1" xmlns="http://www.w3.org/2000/svg" viewBox="0 0 128 128"><defs><style>.cls-1{fill:#fff;}</style></defs><path class="cls-1" d="M27,71a3,3,0,0,1,.07-.59,48.17,48.17,0,0,1,3-8.26,42,42,0,0,1,4.45-7.33,40.13,40.13,0,0,1,5.74-6.12A36.76,36.76,0,0,1,47.22,44a35,35,0,0,1,8-3A36.88,36.88,0,0,1,64,40a34.84,34.84,0,0,1,10.32,1.53,37.62,37.62,0,0,1,9.28,4.27,39.46,39.46,0,0,1,7.85,6.61,39.92,39.92,0,0,1,6,8.53c.25.47.57,1.17,1,2.08s.78,1.89,1.17,2.91.71,2,1,2.91a8,8,0,0,1,.41,2.11,2.28,2.28,0,0,1-.7,1.67,2.31,2.31,0,0,1-1.68.71,2,2,0,0,1-1.45-.5,4.7,4.7,0,0,1-.85-1.32,6.68,6.68,0,0,1-.56-1.57l-.15-.67a12,12,0,0,0-.37-1.37,28.82,28.82,0,0,0-2.33-5.36,37.17,37.17,0,0,0-8.53-10.32,33.07,33.07,0,0,0-6.22-4.06,32.41,32.41,0,0,0-14.5-3.4,28.74,28.74,0,0,0-8.89,1.38,33.23,33.23,0,0,0-8,3.81A34.83,34.83,0,0,0,40,55.74a36.65,36.65,0,0,0-5.17,7.35c-.17.32-.41.81-.71,1.45s-.59,1.33-.89,2-.55,1.41-.76,2a5.32,5.32,0,0,0-.32,1.45,3.6,3.6,0,0,1-.2,1.14,3.86,3.86,0,0,1-.56,1,3.21,3.21,0,0,1-.86.78,2,2,0,0,1-1.09.31,2.34,2.34,0,0,1-1.68-.67A2.19,2.19,0,0,1,27,71Zm20.31-.37a15.11,15.11,0,0,1,1.35-6.32,17.2,17.2,0,0,1,9-8.74,16.26,16.26,0,0,1,12.81,0,16.94,16.94,0,0,1,8.89,8.89,16.44,16.44,0,0,1,0,12.91,16.89,16.89,0,0,1-3.59,5.3,17.06,17.06,0,0,1-5.3,3.59A16,16,0,0,1,64,87.6a16.2,16.2,0,0,1-6.58-1.34,16.54,16.54,0,0,1-5.29-3.64,17.19,17.19,0,0,1-3.51-5.4A16.85,16.85,0,0,1,47.34,70.64Zm28.56,0a10.84,10.84,0,0,0-1-4.54,12.16,12.16,0,0,0-2.61-3.7A12,12,0,0,0,68.54,60,11.51,11.51,0,0,0,64,59a11.63,11.63,0,0,0-4.65.93,12,12,0,0,0-3.78,2.55A12.14,12.14,0,0,0,53,66.29a12.09,12.09,0,0,0,0,9.3,12.22,12.22,0,0,0,2.54,3.77,12,12,0,0,0,3.78,2.55,11.63,11.63,0,0,0,4.65.93,11.77,11.77,0,0,0,4.74-1,11.56,11.56,0,0,0,3.76-2.6A12.6,12.6,0,0,0,75,75.42,12.31,12.31,0,0,0,75.9,70.68Z"/></svg>