<svg id="图层_1" data-name="图层 1" xmlns="http://www.w3.org/2000/svg" viewBox="0 0 128 128"><defs><style>.cls-1{fill:#fff;}</style></defs><path class="cls-1" d="M33.61,97.2a6.77,6.77,0,0,1-2.73-.56,7.21,7.21,0,0,1-2.27-1.53,7.1,7.1,0,0,1-1.56-2.25,6.46,6.46,0,0,1-.58-2.73,7.59,7.59,0,0,1,.74-3.27l28-56a7.18,7.18,0,0,1,12.8,0l28,56a7.59,7.59,0,0,1,.74,3.27,6.46,6.46,0,0,1-.58,2.73,7.38,7.38,0,0,1-1.54,2.25,7.1,7.1,0,0,1-2.27,1.53,7,7,0,0,1-2.75.56Zm56-4.76a2.41,2.41,0,0,0,1.63-.67,2.08,2.08,0,0,0,.75-1.6A2.64,2.64,0,0,0,91.75,89l-28-56a2.22,2.22,0,0,0-.87-1,2.49,2.49,0,0,0-1.25-.33,2.41,2.41,0,0,0-1.25.35,2.34,2.34,0,0,0-.87,1l-28,56a2.56,2.56,0,0,0-.26,1.15A2.13,2.13,0,0,0,32,91.77a2.38,2.38,0,0,0,1.65.67Zm-31.58-12a3.55,3.55,0,1,1,1,2.53A3.46,3.46,0,0,1,58.05,80.46Zm1.19-9.52v-19a2.43,2.43,0,0,1,2.38-2.38A2.43,2.43,0,0,1,64,51.89v19a2.36,2.36,0,0,1-4,1.67A2.25,2.25,0,0,1,59.24,70.94Z"/></svg>