<svg id="图层_1" data-name="图层 1" xmlns="http://www.w3.org/2000/svg" viewBox="0 0 128 128"><defs><style>.cls-1{fill:#fff;}</style></defs><path class="cls-1" d="M93.5,98.5H34.81a5.07,5.07,0,0,1-4.89-3,5.13,5.13,0,0,1-.42-2.19V35.28a5.57,5.57,0,0,1,1-3.84A5.06,5.06,0,0,1,35,29.5h57a14.3,14.3,0,0,1,2.5.11,5.06,5.06,0,0,1,3.94,5c0,.94,0,1.88,0,2.82V69.35c0,8,.14,16.08,0,24.12a5.13,5.13,0,0,1-1.06,3.14A5.21,5.21,0,0,1,93.5,98.5c-3.86.08-3.87,6.08,0,6a11.12,11.12,0,0,0,10.78-8.84A19.83,19.83,0,0,0,104.5,92V43.44c0-2.94,0-5.89,0-8.83A11.19,11.19,0,0,0,99,25a12.29,12.29,0,0,0-6.31-1.48H63.25c-9.42,0-18.84,0-28.26,0A11.23,11.23,0,0,0,23.5,34.81c0,3.25,0,6.51,0,9.77V92.45a13.42,13.42,0,0,0,.82,5.17,11.14,11.14,0,0,0,10.22,6.88c8.49.13,17,0,25.47,0H93.5C97.36,104.5,97.37,98.5,93.5,98.5Z"/><path class="cls-1" d="M26.5,45.92h75c3.86,0,3.87-6,0-6h-75c-3.86,0-3.87,6,0,6Z"/><path class="cls-1" d="M40.31,26.5v75c0,3.86,6,3.87,6,0v-75c0-3.86-6-3.87-6,0Z"/></svg>