<svg id="图层_1" data-name="图层 1" xmlns="http://www.w3.org/2000/svg" xmlns:xlink="http://www.w3.org/1999/xlink" viewBox="0 0 128 128"><defs><style>.cls-1{fill:url(#未命名的渐变_9);}.cls-2{fill:#0071bc;}.cls-3{fill:url(#未命名的渐变_6);}.cls-4{fill:url(#未命名的渐变_4);}.cls-5{fill:url(#未命名的渐变_6-2);}.cls-6{fill:url(#未命名的渐变_4-2);}.cls-7{fill:url(#未命名的渐变_6-3);}</style><linearGradient id="未命名的渐变_9" x1="64.98" y1="47.96" x2="64.98" y2="65.96" gradientUnits="userSpaceOnUse"><stop offset="0" stop-color="#22b573"/><stop offset="1" stop-color="#00a99d"/></linearGradient><radialGradient id="未命名的渐变_6" cx="31.06" cy="36" r="8" gradientUnits="userSpaceOnUse"><stop offset="0" stop-color="#eac2a6"/><stop offset="1" stop-color="#d8af93"/></radialGradient><linearGradient id="未命名的渐变_4" x1="21.53" y1="82.04" x2="45.46" y2="67.64" gradientUnits="userSpaceOnUse"><stop offset="0" stop-color="#00a99d"/><stop offset="1" stop-color="#22b573"/></linearGradient><radialGradient id="未命名的渐变_6-2" cx="85.13" cy="36" r="8" gradientTransform="matrix(-1, 0, 0, 1, 182.08, 0)" xlink:href="#未命名的渐变_6"/><linearGradient id="未命名的渐变_4-2" x1="76" y1="82.68" x2="99.92" y2="68.29" gradientTransform="matrix(-1, 0, 0, 1, 182.08, 0)" xlink:href="#未命名的渐变_4"/><radialGradient id="未命名的渐变_6-3" cx="117.1" cy="36" r="8" gradientTransform="matrix(-1, 0, 0, 1, 182.08, 0)" xlink:href="#未命名的渐变_6"/></defs><rect class="cls-1" x="54.48" y="48" width="21" height="15" rx="3.96"/><rect class="cls-2" x="31.48" y="59" width="67" height="11"/><circle class="cls-3" cx="31.06" cy="36" r="8"/><path class="cls-4" d="M37.1,47.85H25a4,4,0,0,0-4,4V84a4,4,0,0,0,4,4H36.1a4,4,0,0,1,4,4V96a4,4,0,0,0,4,4h1a4,4,0,0,0,4-4V83a4,4,0,0,0-4-4h0a4,4,0,0,1-4-4V51.81A4,4,0,0,0,37.1,47.85Z"/><circle class="cls-5" cx="96.94" cy="36" r="8"/><path class="cls-6" d="M90.9,47.85h8a8,8,0,0,1,8,8V84a4,4,0,0,1-4,4H91.9a4,4,0,0,0-4,4V96a4,4,0,0,1-4,4H83a4,4,0,0,1-4-4V83a4,4,0,0,1,4-4h0a4,4,0,0,0,4-4V51.81A4,4,0,0,1,90.9,47.85Z"/><circle class="cls-7" cx="64.98" cy="36" r="8"/></svg>