<svg id="图层_1" data-name="图层 1" xmlns="http://www.w3.org/2000/svg" xmlns:xlink="http://www.w3.org/1999/xlink" viewBox="0 0 128 128"><defs><style>.cls-1{fill:url(#未命名的渐变_4);}.cls-2{fill:url(#未命名的渐变_3);}</style><radialGradient id="未命名的渐变_4" cx="72.36" cy="71.12" r="37.99" gradientUnits="userSpaceOnUse"><stop offset="0" stop-color="#fee100"/><stop offset="1" stop-color="#ffcf00"/></radialGradient><radialGradient id="未命名的渐变_3" cx="21.12" cy="21.87" r="120.99" gradientUnits="userSpaceOnUse"><stop offset="0" stop-color="#4b4b4b"/><stop offset="1" stop-color="#333"/></radialGradient></defs><rect class="cls-1" x="68.21" y="67.58" width="34.21" height="34.21" rx="8"/><path class="cls-2" d="M17.75,25.75V102.2a8,8,0,0,0,8.05,8l26.25-.15a8,8,0,0,0,8-8V67a8,8,0,0,1,8-8h34.05a8,8,0,0,0,8-8l.15-25.25a8,8,0,0,0-8-8H25.75A8,8,0,0,0,17.75,25.75Z"/></svg>